<?xml version="1.0" encoding="utf-8"?>
<!-- Generator: Adobe Illustrator 17.1.0, SVG Export Plug-In . SVG Version: 6.00 Build 0)  -->
<!DOCTYPE svg PUBLIC "-//W3C//DTD SVG 1.1//EN" "http://www.w3.org/Graphics/SVG/1.1/DTD/svg11.dtd">
<svg version="1.1" id="Layer_1" xmlns="http://www.w3.org/2000/svg" xmlns:xlink="http://www.w3.org/1999/xlink" x="0px" y="0px"
	 viewBox="0 0 1490.9 1201.4" enable-background="new 0 0 1490.9 1201.4" xml:space="preserve">
<g>
	<g>
		<g>
			<g>
				<rect x="60" y="36.2" fill="#E1E1E1" width="176.8" height="184.3"/>
			</g>
		</g>
		<g>
			<g>
				<rect x="48" y="36.2" fill="#ECECEC" width="176.8" height="184.3"/>
			</g>
		</g>
		<g>
			<g>
				<rect x="71.8" y="61" fill="#FAFAFA" width="129.2" height="134.7"/>
			</g>
		</g>
		<g>
			<g>
				<g>
					<path fill="#E1E1E1" d="M71.8,196.6c0.1,0.1-1.2,1.5-3.2,3.7c-2.1,2.2-5,5.1-8.2,8.3c-3.3,3.2-6.2,6.1-8.4,8.1
						c-2.2,2-3.6,3.2-3.7,3.2c-0.1-0.1,1.1-1.5,3.2-3.6c2.1-2.2,5-5.1,8.2-8.3c3.3-3.2,6.2-6.1,8.4-8.1
						C70.3,197.7,71.7,196.5,71.8,196.6z"/>
				</g>
			</g>
		</g>
		<g>
			<g>
				<g>
					<path fill="#E1E1E1" d="M201,196.3c0.1-0.1,1.5,1.2,3.7,3.2c2.2,2.1,5.1,5,8.3,8.2c3.2,3.3,6.1,6.2,8.1,8.4
						c2,2.2,3.2,3.6,3.2,3.7c-0.1,0.1-1.5-1.1-3.6-3.2s-5.1-5-8.3-8.2c-3.2-3.3-6.1-6.2-8.1-8.4C202.1,197.7,200.9,196.3,201,196.3z
						"/>
				</g>
			</g>
		</g>
		<g>
			<g>
				<g>
					<path fill="#E1E1E1" d="M200.6,61.3c-0.1-0.1,1.2-1.5,3.2-3.7c2.1-2.2,5-5.1,8.2-8.3c3.3-3.2,6.2-6.1,8.4-8.1
						c2.2-2,3.6-3.2,3.7-3.2c0.1,0.1-1.1,1.5-3.2,3.6c-2.1,2.2-5,5.1-8.2,8.3c-3.3,3.2-6.2,6.1-8.4,8.1
						C202.1,60.2,200.7,61.4,200.6,61.3z"/>
				</g>
			</g>
		</g>
		<g>
			<g>
				<g>
					<path fill="#E1E1E1" d="M71.4,61.7c-0.1,0.1-1.5-1.2-3.7-3.2c-2.2-2.1-5.1-5-8.3-8.2c-3.2-3.3-6.1-6.2-8.1-8.4
						s-3.2-3.6-3.2-3.7c0.1-0.1,1.5,1.1,3.6,3.2c2.2,2.1,5.1,5,8.3,8.2c3.2,3.3,6.1,6.2,8.1,8.4C70.3,60.2,71.5,61.6,71.4,61.7z"/>
				</g>
			</g>
		</g>
		<g>
			<g>
				<g>
					<path fill="#E1E1E1" d="M200.6,195.7c0,0,0-0.2,0-0.7c0-0.4,0-1.1,0-1.9c0-1.7,0-4.1,0-7.3c0-6.4-0.1-15.7-0.1-27.4
						c-0.1-23.6-0.1-57.2-0.2-97.5l0.4,0.4c-37.6,0-81.8,0-128.9,0.1h0l0.5-0.5c0,49.4,0,95.7-0.1,134.7l-0.4-0.4
						c38.6,0.1,70.8,0.2,93.3,0.2c11.3,0,20.1,0.1,26.2,0.1c3,0,5.3,0,6.9,0c0.8,0,1.4,0,1.8,0C200.4,195.7,200.6,195.7,200.6,195.7
						s-0.2,0-0.6,0c-0.4,0-1,0-1.7,0c-1.6,0-3.9,0-6.8,0c-6.1,0-14.9,0.1-26.1,0.1c-22.6,0.1-54.9,0.1-93.6,0.2l-0.4,0l0-0.4
						c0-39,0-85.3-0.1-134.7l0-0.5h0.5h0c47.1,0,91.2,0,128.9,0.1l0.4,0l0,0.4c-0.1,40.4-0.2,74.1-0.2,97.7c0,11.8-0.1,21-0.1,27.4
						c0,3.1,0,5.5,0,7.2c0,0.8,0,1.4,0,1.8C200.7,195.5,200.6,195.7,200.6,195.7z"/>
				</g>
			</g>
		</g>
		<g>
			<g>
				<g>
					<path fill="#ECECEC" d="M105.9,117.3c0,0-2.8,33.4,33.4,33.4C139.2,132.8,124.5,118.8,105.9,117.3z"/>
				</g>
			</g>
			<g>
				<g>
					<path fill="#ECECEC" d="M172,117.3c0,0-33.4-2.8-33.4,33.4C156.4,150.6,170.5,136,172,117.3z"/>
				</g>
			</g>
			<g>
				<g>
					<path fill="#E1E1E1" d="M137.6,99c0,0-27.2,24.5,1.5,51.6C152.5,136.4,151.3,114.2,137.6,99z"/>
				</g>
			</g>
		</g>
	</g>
	<g>
		<rect x="1034.7" y="1186.5" fill="#ECECEC" width="110.8" height="0.8"/>
		<rect x="967.1" y="1155.4" fill="#ECECEC" width="64.2" height="0.8"/>
	</g>
	<g>
		<rect x="14" y="876" fill="#ECECEC" width="144.5" height="0.8"/>
		<rect x="188.3" y="876" fill="#ECECEC" width="21.2" height="0.8"/>
	</g>
	<g>
		<g>
			<g>
				<circle fill="#E1E1E1" cx="1218" cy="134" r="100.4"/>
				<circle opacity="0.8" fill="#FFFFFF" cx="1216.8" cy="134" r="80.6"/>
			</g>
		</g>
		<g>
			<circle fill="#E1E1E1" cx="1216.6" cy="140.7" r="8.2"/>
		</g>
		<g>
			<polygon fill="#E1E1E1" points="1215.6,143.7 1181,111.1 1184.3,107.5 1215.7,137.1 1272,87.3 1275.3,91 			"/>
		</g>
	</g>
	<rect x="926.2" y="1017.5" fill="#ECECEC" width="29.1" height="0.8"/>
	<rect x="287" y="997.1" fill="#ECECEC" width="313.4" height="0.8"/>
	<rect x="12.5" y="954.6" fill="#ECECEC" width="1164.5" height="0.8"/>
	<g>
		<rect x="285.1" y="519.4" fill="#E7E7E7" width="61.2" height="280.1"/>
		<g>
			<rect x="387.1" y="423.9" fill="#E1E1E1" width="61.2" height="375.6"/>
		</g>
		<g>
			<rect x="489" y="519.4" fill="#ECECEC" width="61.2" height="280.1"/>
		</g>
		<g>
			<rect x="81.1" y="614.9" fill="#F0F0F0" width="61.2" height="184.6"/>
		</g>
		<g>
			<rect x="183.1" y="568.8" fill="#ECECEC" width="61.2" height="230.7"/>
		</g>
		<rect x="591" y="614.9" fill="#F5F5F5" width="61.2" height="184.6"/>
		<g>
			<rect x="1100.9" y="328.4" fill="#E1E1E1" width="61.2" height="471.1"/>
		</g>
		<g>
			<rect x="693" y="519.4" fill="#F0F0F0" width="61.2" height="280.1"/>
		</g>
		<g>
			<rect x="998.9" y="423.9" fill="#E7E7E7" width="61.2" height="375.6"/>
		</g>
		<rect x="897" y="473.3" fill="#ECECEC" width="61.2" height="326.2"/>
		<g>
			<rect x="795" y="568.8" fill="#F0F0F0" width="61.2" height="230.7"/>
		</g>
	</g>
	<ellipse id="_x3C_Path_x3E__2_" fill="#F5F5F5" cx="683.5" cy="1066" rx="648.7" ry="37.9"/>
	<rect x="573.8" y="487.2" fill="#E21A37" width="220.9" height="581.2"/>
	<rect x="630.7" y="487.2" fill="#CE0000" width="164.7" height="581.2"/>
	<rect x="862.3" y="685.4" fill="#E21A37" width="220.9" height="383.1"/>
	<rect x="918.5" y="684.4" fill="#CE0000" width="164.7" height="384"/>
	<rect x="283.8" y="590.8" fill="#E21A37" width="220.9" height="477.6"/>
	<rect x="340" y="589.7" fill="#CE0000" width="164.7" height="478.7"/>
	<g>
		<g>
			<g>
				<path fill="#E21A37" d="M257.3,354.1v17.5c11.3,0.9,21.6,5.4,29.7,12.3l12.4-12.4C288.1,361.5,273.4,355.1,257.3,354.1z"/>
			</g>
		</g>
		<g>
			<g>
				<path fill="#E21A37" d="M248.8,476.1c-25.6-2-46-22.4-48-48h-17.5c2.1,35.2,30.3,63.4,65.5,65.5V476.1z"/>
			</g>
		</g>
		<g>
			<path fill="#CE0000" d="M200.8,419.7c2-25.6,22.4-46,48-48v-17.5c-35.2,2.1-63.4,30.3-65.5,65.5H200.8z"/>
			<path opacity="0.2" fill="#CE0000" d="M200.8,419.7c2-25.6,22.4-46,48-48v-17.5c-35.2,2.1-63.4,30.3-65.5,65.5H200.8z"/>
		</g>
		<path fill="#F68C98" d="M305.4,377.5L293,389.9c7.8,9.2,12.5,21,12.5,34c0,27.5-21.2,50.1-48.2,52.2v17.5
			c36.6-2.2,65.7-32.6,65.7-69.8C323,406.1,316.3,389.9,305.4,377.5z"/>
	</g>
	<g>
		<g>
			<g>
				<polygon fill="#F5F5F5" points="433.6,185.9 459.2,220.6 606.7,159.4 750.4,210.6 880.7,126.3 890,138.7 921,88.1 851.6,82.6 
					862.3,96.7 731.9,180.1 590.3,129.9 				"/>
			</g>
		</g>
		<g opacity="0.5">
			<g>
				<polygon fill="#F5F5F5" points="433.6,185.9 459.2,220.6 606.7,159.4 750.4,210.6 880.7,126.3 890,138.7 921,88.1 851.6,82.6 
					862.3,96.7 731.9,180.1 590.3,129.9 				"/>
			</g>
		</g>
	</g>
	<g>
		<g>
			<g>
				<path fill="#F68C98" d="M903.3,366.5c-7.8,0-14,6.3-14,14c0,7.7,6.3,14,14,14c7.7,0,14-6.3,14-14
					C917.3,372.8,911,366.5,903.3,366.5z M903.3,387.6c-3.9,0-7-3.1-7-7c0-3.9,3.1-7,7-7c3.9,0,7,3.1,7,7
					C910.3,384.4,907.1,387.6,903.3,387.6z"/>
				<path fill="#F68C98" d="M938.7,407.7c-7.8,0-14,6.3-14,14c0,7.7,6.3,14,14,14c7.7,0,14-6.3,14-14
					C952.7,414,946.4,407.7,938.7,407.7z M938.7,428.8c-3.9,0-7-3.1-7-7c0-3.9,3.1-7,7-7c3.9,0,7,3.1,7,7
					C945.7,425.6,942.5,428.8,938.7,428.8z"/>
				<g>
					<polygon fill="#F68C98" points="908.5,435.8 899.2,435.8 931.6,366.5 941,366.5 					"/>
				</g>
			</g>
			<g opacity="0.5">
				<path fill="#F68C98" d="M903.3,366.5c-7.8,0-14,6.3-14,14c0,7.7,6.3,14,14,14c7.7,0,14-6.3,14-14
					C917.3,372.8,911,366.5,903.3,366.5z M903.3,387.6c-3.9,0-7-3.1-7-7c0-3.9,3.1-7,7-7c3.9,0,7,3.1,7,7
					C910.3,384.4,907.1,387.6,903.3,387.6z"/>
				<path fill="#F68C98" d="M938.7,407.7c-7.8,0-14,6.3-14,14c0,7.7,6.3,14,14,14c7.7,0,14-6.3,14-14
					C952.7,414,946.4,407.7,938.7,407.7z M938.7,428.8c-3.9,0-7-3.1-7-7c0-3.9,3.1-7,7-7c3.9,0,7,3.1,7,7
					C945.7,425.6,942.5,428.8,938.7,428.8z"/>
				<g>
					<polygon fill="#F68C98" points="908.5,435.8 899.2,435.8 931.6,366.5 941,366.5 					"/>
				</g>
			</g>
		</g>
	</g>
	<path fill="#FF8B7B" d="M666.7,221.9c0.9,4.1,1.7,7.7,2.7,11.5c1,3.8,2,7.3,3.1,11.2c2.2,7.3,4.7,14.6,7.5,22
		c5.5,15.4,13.1,29.9,22.6,43.2c2.8,3.7,5.9,7.2,9.3,10.4c3.8,3.6,8.1,6.6,12.7,9c9,4.4,18.9,6.3,28.9,5.6c8.7-0.6,17.3-2.6,25.3-6
		c3.8-1.5,7.5-3.3,11.1-5.3c1.8-1,3.5-2,5.2-3.2c1.7-1.2,3.3-2.2,5.2-3.6l-8.8-15.8l-4.7,1.2l-4.9,1.2c-3.3,0.7-6.6,1.3-9.9,1.8
		c-6,0.9-12.2,1-18.3,0.4c-4.9-0.5-9.5-2.2-13.6-4.9c-1.8-1.2-3.4-2.7-4.8-4.3c-1.8-2.1-3.4-4.3-4.9-6.6c-3.4-5.4-6.4-11-8.9-16.9
		c-2.7-6.1-5.2-12.5-7.4-19c-2.3-6.5-4.3-13.2-6.4-19.9l-2.9-10.1c-0.9-3.3-1.9-6.9-2.6-9.8L666.7,221.9z"/>
	<path fill="#007CFF" d="M663.8,201.6c15.2-19.3,38.2-12.2,51.1,18.5c7.2,16.4,12.9,33.3,17,50.7l-54,19
		C663.7,260.7,648.1,221.4,663.8,201.6z"/>
	<path fill="#CE0000" d="M663.8,201.6c15.2-19.3,38.2-12.2,51.1,18.5c7.2,16.4,12.9,33.3,17,50.7l-54,19
		C663.7,260.7,648.1,221.4,663.8,201.6z"/>
	<path opacity="0.3" enable-background="new    " d="M686.3,233.8c-4.4-3-13.6,14.5-17.8,35.2c3,7.2,6.1,14.1,9.3,20.6l32.5-11.4
		C705,258.8,696.3,240.7,686.3,233.8z"/>
	<path fill="#FF8B7B" d="M794.2,292.9l11.8-6.4l4.1,26.4c0,0-19.7,11.9-25.4,2.1l0.6-6.8C786,302,789.2,296.4,794.2,292.9z"/>
	<polygon fill="#FF8B7B" points="820.8,285.1 831.2,306.3 810,312.8 805.9,286.4 	"/>
	<g>
		<path fill="#007CFF" d="M663.5,184.3l-27.6-3.9l-34.4,3c-10.8,0.9-19.5,8.9-21.5,19.6c-3.8,20.8-5.9,50.4-7,75.8
			c-1.2,28.6,1.9,70.8,6.6,109l115-13.9c1.1-100.4,8.7-131.5,9.6-158c0.4-10.7-6.4-20.4-16.6-23.6L663.5,184.3z"/>
	</g>
	<g>
		<g>
			<g>
				<g>
					<g>
						<polygon fill="#FF8B7B" points="698.3,682.1 722.8,688.8 744.7,631.4 720.3,624.6 						"/>
						<path fill="#0F0E20" d="M733.7,681.2c-1.9-2.5-4.7-4.2-7.8-4.8l-25.2-4.9c-1.2-0.3-2.4,0.4-2.7,1.5l-7.8,23
							c-0.9,2.6,0.5,5.5,3.1,6.4c0.1,0,0.1,0,0.2,0.1c9.3,3.7,15.6,2.4,30.1,5.2c8.9,1.7,27.7,7.7,40.3,7.2
							c12.6-0.5,12.5-12.9,7.2-13.9C752.3,698.1,738,686.9,733.7,681.2z"/>
						<g opacity="0.2">
							<polygon points="744.7,631.4 733.1,662 708.9,654.2 720.3,624.6 							"/>
						</g>
						<g>
							<path fill="#1A2E35" d="M805.8,461.8c-0.8,8.9-2.6,17.9-4.9,26.9c-6.5,25-17.5,50.4-26.6,75.2c-18.1,49-33.7,91.7-33.7,91.7
								L706.9,644c0,0,30.1-141.7,50.4-156.2H632.8c-2.4,0-4.7-0.2-7-0.5c21.5-2.8,54.9-16,85.9-29.2c27.4-11.7,53-23.3,67-27.8h0v0
								C795.7,437.4,807.1,447.5,805.8,461.8z"/>
							<path opacity="0.6" d="M805.8,461.8c-0.8,8.9-2.6,17.9-4.9,26.9c-6.5,25-17.5,50.4-26.6,75.2c-18.1,49-33.7,91.7-33.7,91.7
								L706.9,644c0,0,30.1-141.7,50.4-156.2H632.8c-2.4,0-4.7-0.2-7-0.5c21.5-2.8,54.9-16,85.9-29.2c27.4-11.7,53-23.3,67-27.8h0v0
								C795.7,437.4,807.1,447.5,805.8,461.8z"/>
							<path opacity="0.6" d="M778.7,430.3c-13.9,4.5-39.5,16.1-67,27.8c-31,13.2-64.4,26.4-85.9,29.2
								c-36.1-4.8-49.7-47.9-11.9-97.5c24.5,0,49.2,23.5,49.2,23.5S737.3,412.9,778.7,430.3z"/>
						</g>
					</g>
					<g>
						<polygon fill="#FF8B7B" points="868.8,632.6 896.2,632.6 867.5,563.9 849,595.5 						"/>
						<path fill="#0F0E20" d="M894,626.1l-32.2-7.3c-1.1-0.3-2.3,0.3-2.7,1.4l-9,24.7c-0.8,2.6,0.7,5.4,3.4,6.1c0.1,0,0.1,0,0.2,0
							c11.3,2.4,16.8,2.9,30.9,6.1c8.7,2,30.7,7.8,42.7,10.5c12,2.7,15.2-9,10.4-11.3c-21.4-9.9-33.1-19.4-39.3-27.5
							C897.3,627.6,895.8,626.5,894,626.1z"/>
						<g opacity="0.2">
							<polygon points="867.5,563.9 879.7,593.2 855.1,607 849,595.5 							"/>
						</g>
						<g>
							<g>
								<path fill="#1A2E35" d="M880.1,582.8L850,601c0,0-25.1-52.8-49.1-112.3c2.4-9.1,4.1-18,4.9-26.9c1.3-14.3-10.1-24.4-27-31.5
									v0h0c-13.9,4.5-39.5,16.1-67,27.8c-31,13.2-64.4,26.4-85.9,29.2c-2.7,0.3-5.1,0.5-7.4,0.5c-41.2,0-55.4-36.1-38.8-97.4
									c24.5-0.1,66.5-2.6,66.5-2.6s81-19.5,139.3-12.8c28.4,3.2,51.4,24.6,57,52.7C857.3,502.1,880.1,582.8,880.1,582.8z"/>
							</g>
						</g>
						<g>
							<g>
								<path fill="#0F0E20" d="M880.1,582.8L850,601c0,0-25.1-52.8-49.1-112.3c2.4-9.1,4.1-18,4.9-26.9c1.3-14.3-10.1-24.4-27-31.5
									v0h0c-13.9,4.5-39.5,16.1-67,27.8c-31,13.2-64.4,26.4-85.9,29.2c-2.7,0.3-5.1,0.5-7.4,0.5c-41.2,0-55.4-36.1-38.8-97.4
									c24.5-0.1,66.5-2.6,66.5-2.6s81-19.5,139.3-12.8c28.4,3.2,51.4,24.6,57,52.7C857.3,502.1,880.1,582.8,880.1,582.8z"/>
							</g>
						</g>
					</g>
				</g>
			</g>
		</g>
	</g>
	<path fill="#CE0000" d="M663.5,184.3l-27.6-3.9l-34.4,3c-10.8,0.9-19.5,8.9-21.5,19.6c-3.8,20.8-5.9,50.4-7,75.8
		c-1.2,28.6,1.9,70.8,6.6,109l115-13.9c1.1-100.4,8.7-131.5,9.6-158c0.4-10.7-6.4-20.4-16.6-23.6L663.5,184.3z"/>
	<path fill="#1A2E35" d="M579.5,381.4l-3,9.3c-0.4,0.7,0.4,1.5,1.7,1.5l114.8-6.9c1,0,1.7-0.4,1.8-1l1.2-9.4c0-0.7-0.7-1.2-1.7-1.3
		l-113,6.9C580.7,380.6,580,380.9,579.5,381.4z"/>
	<path opacity="0.1" d="M579.5,381.4l-3,9.3c-0.4,0.7,0.4,1.5,1.7,1.5l114.8-6.9c1,0,1.7-0.4,1.8-1l1.2-9.4c0-0.7-0.7-1.2-1.7-1.3
		l-113,6.9C580.7,380.6,580,380.9,579.5,381.4z"/>
	<path opacity="0.3" enable-background="new    " d="M591.2,193.6c22.9-4,21.8,48.1,11.4,86.2c-3,11-16.1,6.4-20.5,3.5
		C567.6,273.9,562.7,210.2,591.2,193.6z"/>
	<g>
		<path fill="#FF8B7B" d="M588.4,270.7c0.9,22.5-6.3,34.3,5.7,41.9c12,7.5,83,31.1,84.7,28.1c-3.4,5.4-6.8,10.1-10.2,15.5
			c-20.4-3.1-40.9-5.9-61.4-8.5c-15-1.9-39.1-5.7-50.8-15.2c-10.6-8.6-8.7-46.2-6.9-73.3C559.1,253.6,588.4,270.7,588.4,270.7z"/>
	</g>
	<path fill="#CE0000" d="M582.3,184.4c23.6-6.9,32.5,12,25.3,44.4c-3.6,17.5-8.8,34.6-15.5,51.2l-49.3-15.6
		C548.1,232.5,558.1,191.5,582.3,184.4z"/>
	<path fill="#007CFF" d="M616.5,184.2c-0.8,4.9,0.8,10,3.6,14.1c2.7,4.2,6.4,7.6,10.1,10.9c4.7,4.3,10.2,8.8,16.5,8
		c5.8-0.8,9.1-3.7,11.4-10.6c5,8,5.2,12,10.6,12.5c3.5,0.3,6.6-2.3,9.1-4.8c4.4-4.5,6.3-7.1,7.1-13.3c1.3-10.1-6.9-19.5-16.5-23.1
		c-10.3-3.8-19.4-4.7-30-6C629.5,171.1,618.2,173.9,616.5,184.2z"/>
	<path fill="#B20000" d="M616.5,184.2c-0.8,4.9,0.8,10,3.6,14.1c2.7,4.2,6.4,7.6,10.1,10.9c4.7,4.3,10.2,8.8,16.5,8
		c5.8-0.8,9.1-3.7,11.4-10.6c5,8,5.2,12,10.6,12.5c3.5,0.3,6.6-2.3,9.1-4.8c4.4-4.5,6.3-7.1,7.1-13.3c1.3-10.1-6.9-19.5-16.5-23.1
		c-10.3-3.8-19.4-4.7-30-6C629.5,171.1,618.2,173.9,616.5,184.2z"/>
	<path fill="#FF8B7B" d="M640.6,135.7l12.5,14.4l17,19.6c-1.6,2.1-2.7,4.4-3.5,6.9c-1.8,5.5-1.3,11,4.7,15
		c2.6,1.2,3.9,14.7-13.1,13.3c-11.6-0.6-19-4.7-25.7-11.7c-3.1-4.2-3.9-6.5-0.7-11C640.9,169.3,641.6,150.6,640.6,135.7z"/>
	<path opacity="0.2" enable-background="new    " d="M665.9,164.8l-10.7-14.2c-0.1,0.4-0.3,0.9-0.4,1.4c-0.5,2-0.9,4-1.1,6.1
		c-0.7,7,5.9,16,12.4,19.9l0.5-1.4c0.7-2.3,1.8-4.6,3.2-6.6c0.1-0.1,0.2-0.2,0.3-0.3L665.9,164.8z"/>
	<path fill="#FF8B7B" d="M641.7,109.1c-1.9,23.3-4.1,36.8,5.9,50c15.1,20,45.1,12.9,53.9-9.4c7.9-20.1,9.5-54.8-11.8-66.7
		c-15.7-8.7-35.4-3-44,12.7C643.4,99.8,642,104.4,641.7,109.1z"/>
	<path d="M638.3,129.7l9.9,4.3l0,0c3.4-1.4,4.1-5.4,3.9-9.1c-0.9-14.2,24.6-31.7,24.6-31.7s-27.1-8.9-35.2-10.2
		c-2.8-0.5-13.1,7-14.7,10.2c-4.5,9.1-2.6,19.9,3.5,28C632.7,124.3,635.4,127.1,638.3,129.7z"/>
	<path fill="#FF8B7B" d="M629.8,125.5c0.5,5.2,2.9,10,6.7,13.6c5,4.5,11-0.4,11.7-7c0.6-5.9-2.4-14.5-8.4-16.5
		C633.8,113.6,629.2,119,629.8,125.5z"/>
	<path d="M676.6,123.1c-0.4,1.9,0.3,3.7,1.6,3.9c1.3,0.3,2.4-1,2.9-2.9c0.5-1.9-0.3-3.7-1.6-4C678.2,119.8,677,121.2,676.6,123.1z"
		/>
	<path d="M698.1,127.8c-0.4,1.9,0.3,3.7,1.6,4c1.3,0.3,2.5-1.1,2.9-2.9c0.4-1.9-0.4-3.7-1.6-3.9
		C699.7,124.6,698.4,125.9,698.1,127.8z"/>
	<path fill="#FF5551" d="M690.9,127.7c0.7,5.5,2,10.8,4.1,15.9c-3.5,1.8-8-0.8-8-0.8L690.9,127.7z"/>
	<path d="M681.6,153.7c-4.3-1.5-7.8-4.7-9.7-8.9c-0.1-0.3,0-0.6,0.3-0.7c0.3-0.1,0.6,0,0.7,0.3c2.1,4.5,6.2,7.8,11,8.8
		c0.3,0,0.5,0.3,0.5,0.7c0,0.3-0.3,0.5-0.7,0.5c0,0-0.1,0-0.1,0C683.1,154.2,682.4,154,681.6,153.7z"/>
	<path d="M673.7,115.4c-0.2-0.1-0.3-0.2-0.5-0.3c-0.4-0.5-0.3-1.2,0.1-1.6c2.7-2.4,6.5-3.3,10-2.4c0.6,0.2,0.9,0.8,0.8,1.4
		c0,0,0,0,0,0c-0.2,0.6-0.8,0.9-1.4,0.7c-2.8-0.7-5.7,0.1-7.8,2C674.5,115.5,674.1,115.6,673.7,115.4z"/>
	<path d="M700.5,115.4c-0.1-0.2-0.1-0.4-0.1-0.6c0.2-0.6,0.8-1,1.4-0.8c3.5,0.9,6.4,3.4,7.7,6.9c0.2,0.6-0.1,1.2-0.7,1.4
		c-0.6,0.2-1.2-0.1-1.4-0.7c-1-2.7-3.3-4.7-6.1-5.3C700.9,116.1,700.6,115.8,700.5,115.4z"/>
	<g>
		<g>
			<g>
				<g>
					<g opacity="0.2">
						<path fill="#662D91" d="M707.6,379.1l146.8,0.4c5.2,0,9.8-4.2,10.3-9.4l6.7-74.3c0.5-5.2-3.4-9.4-8.6-9.4L716,285.9
							c-5.2,0-9.8,4.2-10.3,9.4l-6.7,74.3C698.6,374.8,702.4,379,707.6,379.1z"/>
						<path opacity="0.3" fill="#662D91" d="M707.6,379.1l146.8,0.4c5.2,0,9.8-4.2,10.3-9.4l6.7-74.3c0.5-5.2-3.4-9.4-8.6-9.4
							L716,285.9c-5.2,0-9.8,4.2-10.3,9.4l-6.7,74.3C698.6,374.8,702.4,379,707.6,379.1z"/>
					</g>
					<g>
						<path fill="#662D91" d="M711.9,378.7l146.8,0.4c5.2,0,9.8-4.2,10.3-9.4l6.7-74.3c0.5-5.2-3.4-9.4-8.6-9.4l-146.8-0.4
							c-5.2,0-9.8,4.2-10.3,9.4l-6.7,74.3C702.9,374.5,706.7,378.7,711.9,378.7z"/>
						<path opacity="0.2" fill="#662D91" d="M711.9,378.7l146.8,0.4c5.2,0,9.8-4.2,10.3-9.4l6.7-74.3c0.5-5.2-3.4-9.4-8.6-9.4
							l-146.8-0.4c-5.2,0-9.8,4.2-10.3,9.4l-6.7,74.3C702.9,374.5,706.7,378.7,711.9,378.7z"/>
					</g>
				</g>
			</g>
			<circle fill="#FFFFFF" cx="789.5" cy="332.4" r="10.4"/>
		</g>
		<g>
			<path fill="#662D91" d="M860.8,379.1c0,4.4-2.6,8.1-5.9,8.1c0,0,0,0-0.1,0l-151.5-0.6c-1.6,0-3-1.8-3-4c0-2.2,1.3-4.1,3-4.1
				L860.8,379.1z"/>
			<path opacity="0.2" fill="#662D91" d="M860.8,379.1c0,4.4-2.6,8.1-5.9,8.1c0,0,0,0-0.1,0l-151.5-0.6c-1.6,0-3-1.8-3-4
				c0-2.2,1.3-4.1,3-4.1L860.8,379.1z"/>
		</g>
		<path fill="#662D91" d="M702.5,386.6h-72.9c-3.9,0-7-3.1-7-7l0,0c0-0.6,0.5-1.1,1.1-1.1h78.9c2.2,0,4.1,1.8,4.1,4.1l0,0
			C706.6,384.7,704.8,386.6,702.5,386.6z"/>
	</g>
	<g>
		<path fill="#FF8B7B" d="M663.1,330.2l12.1-3.5l-1.1,29.8c0,0-26.3,6.2-27.9-5.9l3.4-6.5C652.4,338.4,656.5,331.9,663.1,330.2z"/>
		<polygon fill="#FF8B7B" points="693.4,335 689.8,351.7 674.1,356.5 675.2,326.7 		"/>
	</g>
	<polygon fill="#0F0E20" points="698.1,641.4 748.3,658.5 758.6,637.7 703.1,620.1 	"/>
	<polygon fill="#0F0E20" points="842.3,605.2 888.6,579.3 880.1,557.8 829.8,587.2 	"/>
	<path d="M709.3,108.9c6.9-0.4,9.7-8.5,8.8-12c-1.1-4.5-3.8-8.7-7.7-11.1c2.2-6.9-0.8-14.9-9.1-20.5c-5.4-3.7-14.2-4-20.1-1.5
		c0-6.1-11.1-10-18.3-2.5c-6.3-3.5-14.1-3.3-19.2,1.7c-1.7,1.7-2.9,4.2-2.1,6.5c-5.7,0.1-11.2,3.4-13.8,8.4
		c-2.6,5-2.3,11.4,0.8,16.2c2.3,3.4,7.6,3.4,11.6,2.5c1.9,4.1,6.1,6.2,10.3,7.6c13.2,4.4,31.4,0.3,34.6-0.1c3.2-0.4,6.6,0,9.3,1.9
		c-0.9,1.8-3.3,2.6-5.3,2.9c-2,0.3-4,0-6-0.3c4.9,2.8,9.7,4.3,15.2,3.1c1.6-0.4,5.3-2.9,7-3C707,108.4,709.4,109.1,709.3,108.9z"/>
	<g>
		<g>
			<g opacity="0.1">
				<g>
					<g>
						<path fill="#FF735D" d="M1289.4,967.7c-32.7-17.7-69.5-49.8-83.7-86.4C1241,899.5,1270.8,930.3,1289.4,967.7"/>
					</g>
				</g>
				<g>
					<g>
						<path fill="#FF735D" d="M1287.2,912.9c-32.7-17.7-69.5-49.8-83.7-86.4C1238.8,844.7,1268.6,875.5,1287.2,912.9"/>
					</g>
				</g>
				<g>
					<g>
						<path fill="#FF735D" d="M1282.4,859.3c-32.7-17.7-69.5-49.8-83.7-86.4C1234,791.2,1263.8,821.9,1282.4,859.3"/>
					</g>
				</g>
				<g>
					<g>
						<path fill="#FF735D" d="M1275.2,803c-30.3-22.1-63-59.1-72.8-97.4C1235.3,728.7,1261.2,763.3,1275.2,803"/>
					</g>
				</g>
				<g>
					<g>
						<path fill="#FF735D" d="M1266,759.6c-20.5-32.8-38.1-80.5-34-119.9C1254.5,674.4,1266.6,717.1,1266,759.6"/>
					</g>
				</g>
				<g>
					<g>
						<path fill="#FF735D" d="M1270.6,780.3c8.6-41,29.7-91.5,59.9-120C1322.1,704.2,1300.7,746.9,1270.6,780.3"/>
					</g>
				</g>
				<g>
					<g>
						<path fill="#FF735D" d="M1277.4,826.6c12.4-41.9,38.4-92.7,72.3-119.8C1337.2,751.9,1311.5,794.5,1277.4,826.6"/>
					</g>
				</g>
				<g>
					<g>
						<path fill="#FF735D" d="M1284.8,883.1c12.4-41.9,38.4-92.7,72.3-119.8C1344.6,808.3,1318.9,850.9,1284.8,883.1"/>
					</g>
				</g>
				<g>
					<g>
						<path fill="#FF735D" d="M1288.6,951.8c12.4-41.9,38.4-92.7,72.3-119.8C1348.4,877.1,1322.6,919.7,1288.6,951.8"/>
					</g>
				</g>
				<g>
					<g>
						<g>
							<path fill="#1A2E35" d="M1265.2,751.3c0,0,0.1,0.2,0.2,0.7c0.1,0.5,0.3,1.2,0.5,2c0.4,1.8,1,4.4,1.7,7.6
								c1.4,6.6,3.3,16.2,5.5,28.1c2.2,11.9,4.4,26.1,6.7,42c2.2,15.8,4.3,33.3,6,51.7c1.7,18.4,2.8,36,3.5,51.9
								c0.7,16,1,30.4,1.1,42.5c0.1,12.1,0,21.9-0.2,28.6c-0.1,3.3-0.2,5.9-0.2,7.8c0,0.8-0.1,1.5-0.1,2c0,0.5-0.1,0.7-0.1,0.7
								c0,0,0-0.2-0.1-0.7c0-0.5,0-1.2,0-2c0-1.9,0-4.5,0-7.8c0-6.8,0-16.5-0.2-28.6c-0.2-12.1-0.6-26.5-1.4-42.4
								c-0.8-16-2-33.5-3.6-51.9c-1.7-18.4-3.8-35.8-5.9-51.7c-2.2-15.8-4.3-30.1-6.4-42c-2-11.9-3.8-21.5-5.1-28.2
								c-0.6-3.2-1.1-5.8-1.4-7.7c-0.1-0.8-0.2-1.5-0.3-2C1265.2,751.6,1265.1,751.3,1265.2,751.3z"/>
						</g>
					</g>
				</g>
				<g>
					<g>
						<path fill="#094700" d="M1289.4,967.7c-32.7-17.7-69.5-49.8-83.7-86.4C1241,899.5,1270.8,930.3,1289.4,967.7"/>
					</g>
				</g>
				<g>
					<g>
						<path fill="#094700" d="M1287.2,912.9c-32.7-17.7-69.5-49.8-83.7-86.4C1238.8,844.7,1268.6,875.5,1287.2,912.9"/>
					</g>
				</g>
				<g>
					<g>
						<path fill="#094700" d="M1282.4,859.3c-32.7-17.7-69.5-49.8-83.7-86.4C1234,791.2,1263.8,821.9,1282.4,859.3"/>
					</g>
				</g>
				<g>
					<g>
						<path fill="#094700" d="M1275.2,803c-30.3-22.1-63-59.1-72.8-97.4C1235.3,728.7,1261.2,763.3,1275.2,803"/>
					</g>
				</g>
				<g>
					<g>
						<path fill="#094700" d="M1266,759.6c-20.5-32.8-38.1-80.5-34-119.9C1254.5,674.4,1266.6,717.1,1266,759.6"/>
					</g>
				</g>
				<g>
					<g>
						<path fill="#094700" d="M1270.6,780.3c8.6-41,29.7-91.5,59.9-120C1322.1,704.2,1300.7,746.9,1270.6,780.3"/>
					</g>
				</g>
				<g>
					<g>
						<path fill="#094700" d="M1277.4,826.6c12.4-41.9,38.4-92.7,72.3-119.8C1337.2,751.9,1311.5,794.5,1277.4,826.6"/>
					</g>
				</g>
				<g>
					<g>
						<path fill="#094700" d="M1284.8,883.1c12.4-41.9,38.4-92.7,72.3-119.8C1344.6,808.3,1318.9,850.9,1284.8,883.1"/>
					</g>
				</g>
				<g>
					<g>
						<path fill="#094700" d="M1288.6,951.8c12.4-41.9,38.4-92.7,72.3-119.8C1348.4,877.1,1322.6,919.7,1288.6,951.8"/>
					</g>
				</g>
			</g>
			<g>
				<g>
					<g>
						<path fill="#0E8E00" d="M1323,969c-25-33-48.3-81.8-47.9-123.7C1302.4,880.1,1319.4,924.1,1323,969"/>
					</g>
				</g>
				<g>
					<g>
						<path fill="#0E8E00" d="M1342.3,915.7c-25-33-48.3-81.8-47.9-123.7C1321.7,826.8,1338.8,870.8,1342.3,915.7"/>
					</g>
				</g>
				<g>
					<g>
						<path fill="#0E8E00" d="M1358.5,862.1c-25-33-48.3-81.8-47.9-123.7C1337.9,773.2,1354.9,817.3,1358.5,862.1"/>
					</g>
				</g>
				<g>
					<g>
						<path fill="#0E8E00" d="M1373.5,804.9c-20.9-36.1-38.3-87.5-33-128.8C1363.6,714.3,1375.3,760.1,1373.5,804.9"/>
					</g>
				</g>
				<g>
					<g>
						<path fill="#0E8E00" d="M1381.4,759c-7.2-41.5-5.7-95.5,13.7-131.2C1403.5,672,1398.7,718.7,1381.4,759"/>
					</g>
				</g>
				<g>
					<g>
						<path fill="#0E8E00" d="M1377.9,781c24.4-34.8,64.7-72.7,105.3-84.9C1457.7,733.8,1420.3,764,1377.9,781"/>
					</g>
				</g>
				<g>
					<g>
						<path fill="#0E8E00" d="M1366.4,828.5c28.4-33.9,73.7-69.5,117.3-78.6C1453.9,786.7,1412.1,814.7,1366.4,828.5"/>
					</g>
				</g>
				<g>
					<g>
						<path fill="#0E8E00" d="M1351.6,886c28.4-33.9,73.7-69.5,117.3-78.6C1439.1,844.2,1397.4,872.2,1351.6,886"/>
					</g>
				</g>
				<g>
					<g>
						<path fill="#0E8E00" d="M1328.4,953.5c28.4-33.9,73.7-69.5,117.3-78.6C1415.9,911.7,1374.1,939.6,1328.4,953.5"/>
					</g>
				</g>
				<g>
					<g>
						<g>
							<path fill="#1A2E35" d="M1383.9,750.7c0,0,0,0.2-0.1,0.7c-0.1,0.6-0.2,1.2-0.3,2.1c-0.3,2-0.8,4.6-1.3,8
								c-1.2,6.9-3,16.9-5.6,29.3c-5,24.6-13,58.5-24.1,95.3c-5.5,18.4-11.3,35.7-16.8,51.4c-5.6,15.7-10.9,29.7-15.6,41.3
								c-4.7,11.7-8.7,21-11.5,27.5c-1.4,3.1-2.5,5.6-3.3,7.4c-0.4,0.8-0.7,1.4-0.9,1.9c-0.2,0.4-0.3,0.6-0.4,0.6c0,0,0-0.2,0.2-0.7
								c0.2-0.5,0.5-1.2,0.8-2c0.7-1.8,1.8-4.3,3.1-7.5c2.7-6.5,6.5-15.9,11.1-27.6c4.6-11.7,9.8-25.7,15.3-41.4
								c5.4-15.7,11.2-33,16.7-51.4c11-36.7,19.2-70.5,24.5-95c2.7-12.3,4.7-22.2,6-29.1c0.7-3.3,1.2-6,1.6-7.9
								c0.2-0.8,0.3-1.5,0.5-2.1C1383.8,750.9,1383.8,750.7,1383.9,750.7z"/>
						</g>
					</g>
				</g>
			</g>
		</g>
		<g>
			<g>
				<polygon fill="#0F0E20" points="1362.2,1103.3 1274.3,1103.3 1258,982.3 1379,982.3 				"/>
			</g>
		</g>
		<g>
			<rect x="1247.1" y="981.1" fill="#0F0E20" width="142.8" height="18.8"/>
		</g>
		<g>
			<g>
				<path fill="#FFFFFF" d="M1389.9,1000.2c0,0.3-31.6,0.6-70.6,0.6c-39,0-70.6-0.3-70.6-0.6c0-0.3,31.6-0.6,70.6-0.6
					C1358.3,999.6,1389.9,999.9,1389.9,1000.2z"/>
			</g>
		</g>
	</g>
</g>
<g>
</g>
<g>
</g>
<g>
</g>
<g>
</g>
<g>
</g>
</svg>
