<?xml version="1.0" encoding="utf-8"?>
<!-- Generator: Adobe Illustrator 17.1.0, SVG Export Plug-In . SVG Version: 6.00 Build 0)  -->
<!DOCTYPE svg PUBLIC "-//W3C//DTD SVG 1.1//EN" "http://www.w3.org/Graphics/SVG/1.1/DTD/svg11.dtd">
<svg version="1.1" id="Layer_1" xmlns="http://www.w3.org/2000/svg" xmlns:xlink="http://www.w3.org/1999/xlink" x="0px" y="0px"
	 viewBox="0 0 800 800" enable-background="new 0 0 800 800" xml:space="preserve">
<rect fill="none" width="800" height="800"/>
<g>
	<g>
		<g>
			<g>
				<circle fill="#E1E1E1" cx="576.6" cy="151.1" r="56.1"/>
				<circle opacity="0.8" fill="#FFFFFF" cx="575.9" cy="151.1" r="45"/>
			</g>
		</g>
		<g>
			<circle fill="#E1E1E1" cx="575.8" cy="154.9" r="4.6"/>
		</g>
		<g>
			<polygon fill="#E1E1E1" points="575.3,156.5 555.9,138.3 557.8,136.3 575.3,152.8 606.8,125 608.6,127.1 			"/>
		</g>
	</g>
	<g opacity="0.8">
		<g>
			<g>
				<path fill="#FFFFFF" d="M170.9,600.6V611c6.7,0.5,12.8,3.2,17.7,7.3l7.4-7.4C189.1,605,180.4,601.2,170.9,600.6z"/>
			</g>
			<g>
				<path fill="#FFFFFF" d="M165.8,673.1c-15.2-1.2-27.3-13.3-28.5-28.5h-10.4c1.3,20.9,18,37.7,39,39V673.1z"/>
			</g>
			<g>
				<path fill="#FFFFFF" d="M137.3,639.6c1.2-15.2,13.3-27.3,28.5-28.5v-10.4c-20.9,1.3-37.7,18-39,39H137.3z"/>
				<path opacity="0.2" fill="#FFFFFF" d="M137.3,639.6c1.2-15.2,13.3-27.3,28.5-28.5v-10.4c-20.9,1.3-37.7,18-39,39H137.3z"/>
			</g>
			<path fill="#FFFFFF" d="M199.4,614.5l-7.4,7.4c4.6,5.4,7.4,12.5,7.4,20.2c0,16.4-12.6,29.8-28.6,31.1v10.4
				c21.8-1.3,39-19.4,39-41.5C209.9,631.5,205.9,621.9,199.4,614.5z"/>
		</g>
		<g>
			<g>
				<path fill="#FFFFFF" d="M170.9,600.6V611c6.7,0.5,12.8,3.2,17.7,7.3l7.4-7.4C189.1,605,180.4,601.2,170.9,600.6z"/>
			</g>
		</g>
		<g>
			<g>
				<path fill="#FFFFFF" d="M165.8,673.1c-15.2-1.2-27.3-13.3-28.5-28.5h-10.4c1.3,20.9,18,37.7,39,39V673.1z"/>
			</g>
		</g>
		<g>
			<g>
				<path fill="#FFFFFF" d="M137.3,639.6c1.2-15.2,13.3-27.3,28.5-28.5v-10.4c-20.9,1.3-37.7,18-39,39H137.3z"/>
			</g>
		</g>
		<path fill="#FFFFFF" d="M199.4,614.5l-7.4,7.4c4.6,5.4,7.4,12.5,7.4,20.2c0,16.4-12.6,29.8-28.6,31.1v10.4
			c21.8-1.3,39-19.4,39-41.5C209.9,631.5,205.9,621.9,199.4,614.5z"/>
	</g>
	<g>
		<rect x="168.4" y="161.1" fill="none" stroke="#CDD9EF" stroke-miterlimit="10" width="489.8" height="481"/>
		<line fill="none" stroke="#CDD9EF" stroke-miterlimit="10" x1="168.4" y1="573.4" x2="658.2" y2="573.4"/>
		<line fill="none" stroke="#CDD9EF" stroke-miterlimit="10" x1="168.4" y1="504.8" x2="658.2" y2="504.8"/>
		<line fill="none" stroke="#CDD9EF" stroke-miterlimit="10" x1="168.4" y1="436.1" x2="658.2" y2="436.1"/>
		<line fill="none" stroke="#CDD9EF" stroke-miterlimit="10" x1="168.4" y1="367.5" x2="658.2" y2="367.5"/>
		<line fill="none" stroke="#CDD9EF" stroke-miterlimit="10" x1="168.4" y1="298.9" x2="658.2" y2="298.9"/>
		<line fill="none" stroke="#CDD9EF" stroke-miterlimit="10" x1="168.4" y1="230.2" x2="658.2" y2="230.2"/>
		<line fill="none" stroke="#CDD9EF" stroke-miterlimit="10" x1="576.6" y1="161.1" x2="576.6" y2="642.1"/>
		<line fill="none" stroke="#CDD9EF" stroke-miterlimit="10" x1="494.9" y1="161.1" x2="494.9" y2="642.1"/>
		<line fill="none" stroke="#CDD9EF" stroke-miterlimit="10" x1="413.3" y1="161.1" x2="413.3" y2="642.1"/>
		<line fill="none" stroke="#CDD9EF" stroke-miterlimit="10" x1="331.7" y1="161.1" x2="331.7" y2="642.1"/>
		<line fill="none" stroke="#CDD9EF" stroke-miterlimit="10" x1="250" y1="161.1" x2="250" y2="642.1"/>
	</g>
	<g>
		<g>
			<path fill="#CE0000" d="M295.7,563.7l-47.1-23.1l38.6-70l-28.6-6.2l56.4-91.9l0,0.5c12.9-17.7,33.8-29.2,57.3-29.2h97.1l-0.2-2.9
				l37.9,0.4c35.3,0.7,67.1,23.5,76.9,57.5c0.4,1.4,0.8,2.8,1.1,4.2L607,523.3l-65.1-5.3l12.7,163.2H291.3L295.7,563.7L295.7,563.7z
				"/>
			<path fill="#CE0000" d="M294.7,591.8c0.5,0,0.9-0.3,1-0.8l24.2-173.6c0.1-0.5-0.3-1-0.8-1.1c-0.5-0.1-1,0.3-1.1,0.8l-24.2,173.6
				c-0.1,0.5,0.3,1,0.8,1.1C294.6,591.8,294.6,591.8,294.7,591.8z"/>
		</g>
		<g>
			<path fill="#111111" d="M408.5,350h87.3c7.6,0,13.9-6.2,13.9-13.9v0c0-7.6-6.2-13.9-13.9-13.9h-87.3c-7.6,0-13.9,6.2-13.9,13.9v0
				C394.6,343.7,400.8,350,408.5,350z"/>
			<path fill="#111111" d="M393.6,336.1c0-8.2,6.7-14.8,14.8-14.8h87.3c8.2,0,14.8,6.7,14.8,14.8S504,351,495.8,351h-87.3
				C400.3,351,393.6,344.3,393.6,336.1z M408.5,323.2c-7.1,0-12.9,5.8-12.9,12.9c0,7.1,5.8,12.9,12.9,12.9h87.3
				c7.1,0,12.9-5.8,12.9-12.9c0-7.1-5.8-12.9-12.9-12.9H408.5z"/>
		</g>
		<polygon fill="#111111" points="373,375.2 350.1,681.9 471.6,681.1 456.5,378.8 472.3,361.9 		"/>
		<g>
			<path fill="#111111" d="M259.5,533.6h44.6c6,0,10.9-4.9,10.9-10.9v-83.9c0-6-4.9-10.9-10.9-10.9h-44.6c-6,0-10.9,4.9-10.9,10.9
				v83.9C248.6,528.8,253.5,533.6,259.5,533.6z"/>
			<g>
				<g>
					<path fill="#E59078" d="M298.6,473.2c-2.7-14.6-20.3-7.9-31.3-5.3c-5.1,1.6-9.8,3.1-14.2,4.4c2.2-4.8,4.3-9.7,4.7-14.9
						c0.1-1.7-0.1-3.6-1.4-4.7c-1-0.8-2.4-1-3.7-0.7c-1.3,0.3-2.4,1-3.5,1.7c-10.2,6.6-35.7,31.1-35.7,31.2
						c-7.2,6.9-12.1,16-15.2,25.4c-2.9,8.8-6,20.8-0.6,29.3c3,4.7,8.2,7.5,13.5,9.1c8.3,2.5,17.2,2.3,25.6,0.5
						c7.8-1.7,14.9-4.9,22.1-8.2c7.2-3.3,14.7-5.9,22.1-8.9c8.3-2.8,12.1-13.3,5.6-14.8c6.8-0.5,14-3.4,12.6-11.6
						c-0.3-4.6-3.6-6-7.5-6.2c6.2-0.6,12.1-2.4,11.4-9.2c0.3-7.6-5.7-9.1-11.8-9C295.5,480.4,299.1,478.3,298.6,473.2z"/>
					<path opacity="0.36" fill="#E06A4B" d="M253.2,472.3l-23.9,9.5c0,0,23-17.1,27.4-18.4L253.2,472.3z"/>
				</g>
				<path fill="#DF6969" d="M276.7,486.3c0.1,0,0.2,0,0.3,0c5.8-1.8,14.9-4.5,16.7-4.5c0.5,0,1-0.5,0.9-1c0-0.5-0.5-0.9-1-0.9
					c-2.6,0.1-15.7,4.1-17.2,4.6c-0.5,0.2-0.8,0.7-0.6,1.2C275.9,486.1,276.3,486.3,276.7,486.3z"/>
				<path fill="#DF6969" d="M279.7,504.2c0.1,0,0.2,0,0.3,0l13.4-3.9c0.5-0.1,0.8-0.7,0.7-1.2c-0.2-0.5-0.7-0.8-1.2-0.7l-13.4,3.9
					c-0.5,0.1-0.8,0.7-0.7,1.2C278.9,504,279.3,504.2,279.7,504.2z"/>
				<path fill="#DF6969" d="M279.4,520.3c0.1,0,0.2,0,0.2,0l7.3-1.9c0.5-0.1,0.8-0.7,0.7-1.2c-0.1-0.5-0.7-0.8-1.2-0.7l-7.3,1.9
					c-0.5,0.1-0.8,0.7-0.7,1.2C278.6,520,279,520.3,279.4,520.3z"/>
			</g>
			<g>
				<g>
					<path fill="#FFA485" d="M271.7,476.6c-7-0.3-13.9,1.2-13.8,9.9c-1,7.8,5.7,10.1,12.7,10.9c-4.4,0.1-8.3,1.6-8.7,6.8
						c-1.9,9.3,6.2,12.9,13.9,13.7c-7.5,1.4-3.4,13.6,5.9,17.1l49.6,21.5c10.6,4.9,33.3-2.6,40.6-4.8c1.5-0.5,2.9-1.4,3.7-2.7
						c9.9-15.1,1.4-45.3-15.3-65.8c0,0-28.4-28.9-39.8-36.8c-1.2-0.8-2.5-1.7-3.9-2.1c-1.4-0.4-3.1-0.3-4.2,0.7
						c-1.5,1.2-1.8,3.4-1.7,5.3c0.2,6,2.5,11.6,4.8,17.2c-5-1.7-10.3-3.4-16-5.5c-12.5-3.4-32.3-11.6-35.9,4.9
						C263,472.9,267,475.5,271.7,476.6z"/>
					<path opacity="0.36" fill="#E06A4B" d="M315.6,467.6l27,11.6c0,0-25.7-20.2-30.7-21.9L315.6,467.6z"/>
				</g>
				<path fill="#DF6969" d="M288.3,482.7c0.4,0,0.8-0.3,0.9-0.7c0.2-0.5-0.1-1.1-0.6-1.2c-1.7-0.6-16.5-5.6-19.4-5.8
					c-0.6,0-1,0.4-1,0.9c0,0.5,0.4,1,0.9,1c2.2,0.1,14.4,4.2,18.9,5.7C288.1,482.7,288.2,482.7,288.3,482.7z"/>
				<path fill="#DF6969" d="M284.3,503c0.4,0,0.8-0.3,0.9-0.7c0.2-0.5-0.1-1.1-0.6-1.2l-15.2-4.9c-0.5-0.2-1.1,0.1-1.2,0.6
					c-0.2,0.5,0.1,1.1,0.6,1.2L284,503C284.1,503,284.2,503,284.3,503z"/>
				<path fill="#DF6969" d="M284.1,521.3c0.4,0,0.8-0.3,0.9-0.7c0.2-0.5-0.1-1.1-0.6-1.2l-8.2-2.5c-0.5-0.2-1.1,0.1-1.2,0.6
					c-0.2,0.5,0.1,1.1,0.6,1.2l8.2,2.5C283.9,521.3,284,521.3,284.1,521.3z"/>
			</g>
			<path fill="#CE0000" d="M496.4,512.5l-3.3,9.4l-99.5-28.1l-11.8-3.3c-3.3-0.9-6.9,0.8-8.2,4l-26.7,65.6c-1.8,4.3,0.4,9.3,4.7,11
				l115.9,45l45.1,17.5c13.5,3.7,26.5,4.7,38.5,3.3c37.5-4.2,64.5-31.2,62.9-66.2l-8.2-54.6L496.4,512.5z"/>
			<g>
				<path fill="#2D3248" d="M381.1,533.2c0.4,0,0.8-0.3,0.9-0.7l12.6-37.6c0.2-0.5-0.1-1.1-0.6-1.2c-0.5-0.2-1.1,0.1-1.2,0.6
					l-12.6,37.6c-0.2,0.5,0.1,1.1,0.6,1.2C380.9,533.2,381,533.2,381.1,533.2z"/>
				<path fill="#2D3248" d="M356.7,556.7c0-2.4,1.9-4.3,4.3-4.3c2.4,0,4.3,1.9,4.3,4.3c0,2.4-1.9,4.3-4.3,4.3
					C358.7,560.9,356.7,559,356.7,556.7z M358.7,556.7c0,1.3,1,2.3,2.3,2.3c1.3,0,2.3-1,2.3-2.3s-1-2.3-2.3-2.3
					C359.7,554.3,358.7,555.4,358.7,556.7z"/>
				<path fill="#2D3248" d="M536.8,534.6c0.4,0,0.8-0.3,0.9-0.7c0.1-0.5-0.2-1-0.7-1.2c-0.8-0.2-79.1-21.7-80-22
					c-0.5-0.1-1.1,0.2-1.2,0.7c-0.1,0.5,0.2,1,0.7,1.2c0.9,0.3,76.8,21.1,80,22C536.6,534.6,536.7,534.6,536.8,534.6z"/>
				<path fill="#2D3248" d="M509.7,527.2C509.7,527.2,509.7,527.2,509.7,527.2c0.6,0,1-0.5,1-1l-3.1-74.4c0-0.5-0.5-0.9-1-0.9
					c-0.5,0-0.9,0.5-0.9,1l3.1,74.4C508.7,526.8,509.1,527.2,509.7,527.2z"/>
				<path fill="#2D3248" d="M361,575.7c0.4,0,0.8-0.2,0.9-0.6c0.2-0.5-0.1-1.1-0.6-1.2l-10.3-3.9c-1.6-0.6-2.9-1.8-3.6-3.4
					c-0.7-1.6-0.7-3.4-0.1-5l3.5-8.8c0.2-0.5,0-1.1-0.5-1.3c-0.5-0.2-1.1,0-1.3,0.5l-3.5,8.8c-0.8,2.1-0.8,4.4,0.1,6.5
					c0.9,2.1,2.6,3.7,4.7,4.5l10.3,3.9C360.8,575.7,360.9,575.7,361,575.7z"/>
			</g>
			<path fill="#2D3248" d="M539.7,638.7c3.9,0,7.8-0.3,11.6-0.8c0.5-0.1,0.9-0.6,0.8-1.1c-0.1-0.5-0.6-0.9-1.1-0.8
				c-13.6,1.9-27.6,0.3-40.5-4.6l-49.8-19c-0.5-0.2-1.1,0.1-1.2,0.6c-0.2,0.5,0.1,1.1,0.6,1.2l49.8,19
				C519.4,636.8,529.5,638.7,539.7,638.7z"/>
		</g>
		<g>
			<path fill="#111111" d="M314.6,151.1l8,1.5c1,0.2,1.9-0.6,1.8-1.6l-0.8-10.2c-0.4-5.3,5-9.1,9.8-7c3.8,1.7,8.3,3.5,12.7,4.7
				c4.6-7.4,12.7-12.4,22-12.4h0c0.8,0,1.6,0,2.4,0.1c7.1-5.9,16.1-9.4,26-9.4h15.9c19.4,0,35.4,14.5,37.8,33.2
				c0.3,0.1,0.6,0.1,0.9,0.2c12.1,4,18.6,17.2,15.7,29.7l-6.1,26.5c-1.3-0.2-2.7-0.2-4.1-0.1l-13.2,1.1l-13.4,1.1l-2.7-34h-13.3
				c-8.8,9.9-27.3,23.5-61.3,20.5c-8-0.7-14.7-2.3-20.4-4.4c-16.7-6.3-24.5-17.4-28.2-26.7C301.4,156.9,307.3,149.7,314.6,151.1z"/>
			<g>
				<g>
					<path fill="#FFA485" d="M420.2,166c0.4-0.7,1.2-1,1.9-0.7c1.1,0.5,2.9,1.1,4.7,1.5l3.3,41.5l13.4-1.1l13.2-1.1
						c1.4-0.1,2.8-0.1,4.1,0.1c9.7,1.1,17.7,9,18.5,19.2l0.4,5.1c0.9,11.5-7.7,21.7-19.2,22.6l-7.4,0.6l12.4,76.7
						c3.3,20.3-10.5,39.4-30.8,42.7l-8.9,1.4c-20.3,3.3-39.4-10.5-42.7-30.8l-4.9-30.4l-1.7,0.1c-18.7,1.5-35.1-12.5-36.6-31.2
						l-7.3-91.8c5.7,2.1,12.4,3.7,20.4,4.4C399.2,199.1,416.8,172.2,420.2,166z"/>
				</g>
				<path fill="#E06A4B" d="M460.2,237.6c0.3,0,0.7-0.2,0.8-0.5c0.3-0.5,0.1-1.1-0.4-1.3l-7.1-3.8l6.8-8.9c0.3-0.4,0.2-1-0.2-1.4
					c-0.4-0.3-1-0.2-1.4,0.2l-7.5,9.8c-0.2,0.2-0.2,0.5-0.2,0.8c0.1,0.3,0.2,0.5,0.5,0.6l8.1,4.4C459.9,237.5,460,237.6,460.2,237.6
					z"/>
				<g>
					<path fill="#E06A4B" d="M372.3,248.1c0.2,0,0.5,0,0.7,0l6.3-0.5c0.5,0,0.9-0.5,0.9-1c0-0.5-0.5-0.9-1-0.9l-6.3,0.5
						c-2,0.2-3.9-0.6-5.3-2c-1.4-1.4-2.1-3.3-1.9-5.3l2.1-22.3c0-0.5-0.3-1-0.9-1.1c-0.5-0.1-1,0.3-1.1,0.9l-2.1,22.3
						c-0.2,2.5,0.6,5,2.4,6.9C367.9,247.2,370.1,248.1,372.3,248.1z"/>
					<g>
						<circle fill="#111111" cx="351.5" cy="231.4" r="4.6"/>
						<g>
							<g>
								<path fill="#E06A4B" d="M380.3,289.1c0.2,0,0.4,0,0.6-0.1c0.2-0.1,5-2.7,9.1,0.9c0.4,0.4,1,0.3,1.3-0.1
									c0.4-0.4,0.3-1-0.1-1.3c-5.1-4.6-11.2-1.2-11.3-1.2c-0.5,0.3-0.6,0.8-0.4,1.3C379.8,288.8,380,289,380.3,289.1z"/>
							</g>
						</g>
						<g>
							<g>
								<g>
									<g>
										<g>
											<g>
												<path fill="#111111" d="M412.6,209.8c-2.3,0.8-5.2,0.3-8,0c-2.8-0.4-5.7-0.7-8.2-0.9c-2.5-0.2-5.4-0.3-8.2-0.4
													c-2.8-0.1-5.8-0.1-7.9-1.2c-2.1-1.1-2.7-3.7,0-6.7c2.6-2.9,9.1-5.8,17.3-5.2c8.2,0.7,14.1,4.5,16.1,7.8
													C416,206.6,414.9,209.1,412.6,209.8z"/>
											</g>
										</g>
									</g>
									<g>
										<g>
											<g>
												<path fill="#111111" d="M335.1,216.3c1.7,0.4,3.6-0.4,5.4-0.9c1.9-0.6,3.8-1.2,5.4-1.6c1.7-0.4,3.6-0.9,5.5-1.2
													c1.9-0.4,3.9-0.7,5.2-1.8c1.3-1.1,1.3-3.2-1-5.2c-2.2-2-7-3.5-12.5-2c-5.5,1.4-8.9,5.1-9.9,7.8
													C332.4,214.2,333.5,216,335.1,216.3z"/>
											</g>
										</g>
									</g>
								</g>
							</g>
						</g>
						<circle fill="#111111" cx="391.7" cy="228.6" r="5"/>
						<g>
							<path fill="#FFA485" d="M397.2,233.4c0,0-4.7-2.8-8.7,1.3"/>
							<path fill="#E06A4B" d="M388.5,235.7c0.3,0,0.5-0.1,0.7-0.3c3.4-3.6,7.4-1.3,7.5-1.2c0.5,0.3,1.1,0.1,1.3-0.3
								c0.3-0.5,0.1-1.1-0.3-1.3c-1.9-1.1-6.3-2.3-9.9,1.5c-0.4,0.4-0.4,1,0,1.4C388,235.6,388.3,235.7,388.5,235.7z"/>
						</g>
						<g>
							<path fill="#FFA485" d="M355.5,236.4c0,0-4.2-1.5-7.7,0.7"/>
							<path fill="#E06A4B" d="M347.7,238.1c0.2,0,0.3,0,0.5-0.1c3.1-1.9,6.9-0.6,6.9-0.6c0.5,0.2,1.1-0.1,1.2-0.6
								c0.2-0.5-0.1-1.1-0.6-1.2c-0.2-0.1-4.7-1.6-8.6,0.8c-0.5,0.3-0.6,0.9-0.3,1.3C347.1,237.9,347.4,238.1,347.7,238.1z"/>
						</g>
					</g>
					<path fill="#FFFFFF" d="M402.5,248.4c-1.6-0.9-3.7-0.5-4.9,0.9c-2.3,2.5-7.4,7-15.2,8.4c-1.9,0.3-2.7,2.7-1.7,4.3
						c2.1,3.7,7.4,9.2,17.1,3.7C409.6,258.9,406.8,250.7,402.5,248.4z"/>
					<path fill="#E06A4B" d="M378.3,313.5c0,0,40.9-0.6,49.7-17.9c0,0-2.7,36.6-46,40.6L378.3,313.5z"/>
				</g>
			</g>
			<g>
				<g>
					<g>
						<g>
							<path fill="#111111" d="M365.8,337.7l-9.7,25c-1.1,3-0.6,6.3,1.6,8.7l25.2,28.9c1.8,3.3,5.7,3.5,7.7,0.4l21.8-26.9L374,333.8
								C371,330.6,366.1,332.9,365.8,337.7z"/>
							<path fill="#111111" d="M386.6,403.9c-1.9-0.1-3.6-1.2-4.6-3l-25.2-28.8c-2.3-2.7-3-6.4-1.7-9.7l9.7-24.9
								c0.3-2.8,1.9-5,4.2-5.9c2-0.7,4.2-0.2,5.7,1.5l38.3,40.1c0.3,0.4,0.4,0.9,0.1,1.3l-21.7,26.8c-1.1,1.6-2.7,2.6-4.5,2.6
								C386.7,403.9,386.7,403.9,386.6,403.9z M373.3,334.5c-1-1.1-2.4-1.5-3.7-1c-1.6,0.6-2.8,2.3-2.9,4.3c0,0.1,0,0.2-0.1,0.3
								l-9.7,25c-1,2.6-0.5,5.6,1.4,7.7l25.2,28.9c0,0.1,0.1,0.1,0.1,0.2c0.7,1.3,1.8,2,3,2.1c1.2,0.1,2.3-0.6,3.1-1.8l21.2-26.2
								L373.3,334.5z"/>
						</g>
						<g>
							<path fill="#111111" d="M463.8,327.9l-56.4,46.1l33.3,32.7c3.4,2.9,8.9,2.5,11.7-0.8l31.1-37c2.3-2.7,2.7-6.5,1.2-9.6
								L469.9,329C468.9,326.9,465.7,326.4,463.8,327.9z"/>
							<path fill="#111111" d="M440,407.5l-33.3-32.7c-0.2-0.2-0.3-0.5-0.3-0.7c0-0.3,0.1-0.5,0.4-0.7l56.4-46.1
								c1.2-1,2.8-1.3,4.3-1c1.4,0.3,2.6,1.2,3.2,2.4l14.8,30.4c1.7,3.5,1.2,7.7-1.3,10.7l-31.1,37c-1.5,1.7-3.7,2.8-6.2,3.1
								c-0.3,0-0.6,0-0.8,0C443.9,409.7,441.7,408.9,440,407.5z M464.4,328.7L464.4,328.7l-55.6,45.4l32.4,31.9
								c1.4,1.2,3.4,1.8,5.5,1.7c2-0.2,3.7-1,4.9-2.4l31.1-37c2-2.4,2.4-5.8,1.1-8.6L469,329.4c-0.3-0.7-1-1.2-1.9-1.3
								c-0.2-0.1-0.5-0.1-0.7-0.1C465.7,328,465,328.2,464.4,328.7z"/>
						</g>
					</g>
				</g>
				<path fill="#2D3248" d="M445.7,410.8c0.2,0,0.4,0,0.6,0c2.8-0.2,5.4-1.5,7.1-3.7l21.1-26c0.3-0.4,0.3-1-0.1-1.4
					c-0.4-0.3-1-0.3-1.4,0.1l-21.1,26c-1.4,1.8-3.5,2.8-5.7,2.9c-2.3,0.1-4.4-0.7-6-2.2l-27.9-26.9c-0.8-0.8-2-1.2-3.2-1.1
					c-1.2,0.1-2.2,0.7-2.9,1.7L391.1,401c-1.1,1.5-2.7,2.3-4.6,2.4c-1.9,0-3.5-0.7-4.7-2.2l-9.2-11.5c-0.3-0.4-0.9-0.5-1.4-0.1
					c-0.4,0.3-0.5,0.9-0.1,1.4l9.2,11.5c1.5,1.9,3.8,3,6.2,2.9c2.4-0.1,4.6-1.2,6.1-3.2l15.1-20.7c0.4-0.5,0.9-0.8,1.5-0.9
					c0.6-0.1,1.2,0.2,1.7,0.6l27.9,26.9C440.7,409.8,443.1,410.8,445.7,410.8z"/>
				<path fill="#2D3248" d="M440.3,396.4c0-2.9,2.3-5.2,5.2-5.2c2.9,0,5.2,2.3,5.2,5.2c0,2.9-2.3,5.2-5.2,5.2
					C442.6,401.6,440.3,399.3,440.3,396.4z M442.2,396.4c0,1.8,1.5,3.3,3.3,3.3c1.8,0,3.3-1.5,3.3-3.3c0-1.8-1.5-3.3-3.3-3.3
					C443.7,393.1,442.2,394.6,442.2,396.4z"/>
				<path fill="#2D3248" d="M447.5,439.7c0.5,0,0.9-0.4,1-0.9c0-0.5-0.4-1-0.9-1c-3.4-0.1-6.7-2.5-8.2-6c-1.4-3.1-1.6-6.9-0.5-10.9
					c1-3.7,3-7.1,5-10.3c2.2-3.5,5.3-8.4,3.7-13.1c-0.5-1.4-1.3-2.4-2.4-2.8c-0.5-0.2-1.1,0.1-1.2,0.6c-0.2,0.5,0.1,1.1,0.6,1.2
					c0.5,0.2,0.9,0.8,1.2,1.6c1.3,3.8-1.4,8-3.5,11.4c-2.1,3.3-4.1,6.9-5.2,10.8c-1.2,4.4-1,8.7,0.6,12.2
					C439.4,436.7,443.4,439.6,447.5,439.7C447.4,439.7,447.4,439.7,447.5,439.7z"/>
				<path fill="#2D3248" d="M379.1,394.5c0-2.9,2.3-5.2,5.2-5.2c2.9,0,5.2,2.3,5.2,5.2c0,2.9-2.3,5.2-5.2,5.2
					C381.4,399.7,379.1,397.4,379.1,394.5z M381,394.5c0,1.8,1.5,3.3,3.3,3.3c1.8,0,3.3-1.5,3.3-3.3c0-1.8-1.5-3.3-3.3-3.3
					C382.5,391.3,381,392.8,381,394.5z"/>
				<path fill="#2D3248" d="M386.3,455.3c0.5,0,0.9-0.4,1-0.9c0-0.5-0.4-1-0.9-1c-3.3-0.2-6.6-3.6-8.2-8.5c-1.4-4.4-1.6-10-0.5-15.7
					c1-5.3,3-10.2,5-14.6c2.2-4.9,5.1-11.5,3.6-17.8c-0.3-1.3-1-3-2.3-3.7c-0.5-0.2-1.1-0.1-1.3,0.4c-0.2,0.5-0.1,1.1,0.4,1.3
					c0.5,0.3,1,1.2,1.3,2.4c1.3,5.7-1.4,11.7-3.5,16.6c-2,4.6-4.1,9.6-5.2,15.1c-1.2,6-1,11.9,0.5,16.7
					C378.1,451.2,382.1,455.1,386.3,455.3C386.3,455.3,386.3,455.3,386.3,455.3z"/>
				<path fill="#2D3248" d="M466,369c0.2,0,0.5-0.1,0.7-0.3c4-3.8,7.9-7.9,11.5-12.1c1.6-1.9,3.4-4.2,3.3-7c0-1.2-0.4-2.4-0.8-3.3
					c-1.4-3.6-9.4-18.6-11.8-21.9c-0.3-0.4-0.9-0.5-1.4-0.2c-0.4,0.3-0.5,0.9-0.2,1.4c2.3,3.1,10.3,18,11.6,21.5
					c0.3,0.9,0.7,1.8,0.7,2.7c0.1,2.1-1.5,4-2.9,5.7c-3.5,4.2-7.3,8.2-11.3,11.9c-0.4,0.4-0.4,1,0,1.4
					C465.5,368.9,465.8,369,466,369z"/>
				<path fill="#2D3248" d="M457.3,333.3c0.2,0,0.4-0.1,0.5-0.2l10.8-7.3c0.4-0.3,0.6-0.9,0.3-1.3c-0.3-0.4-0.9-0.6-1.3-0.3
					l-10.8,7.3c-0.4,0.3-0.6,0.9-0.3,1.3C456.6,333.1,456.9,333.3,457.3,333.3z"/>
				<path fill="#2D3248" d="M368.4,370.6c0.3,0,0.5-0.1,0.7-0.3c0.4-0.4,0.3-1,0-1.4l-10.1-9.5c-0.5-0.5-1.1-1-1.3-1.6
					c-0.5-1.2,0.1-2.7,0.8-4.2c1.6-3.2,3.4-6.4,5.3-9.4c0.3-0.5,0.2-1-0.3-1.3c-0.4-0.3-1-0.2-1.3,0.3c-2,3.1-3.8,6.3-5.4,9.5
					c-0.9,1.8-1.7,3.9-0.8,5.8c0.4,0.9,1.1,1.6,1.7,2.2l10.1,9.5C367.9,370.5,368.2,370.6,368.4,370.6z"/>
			</g>
		</g>
	</g>
	<g>
		<g>
			<path fill="#9CFF00" d="M247.7,253.5v54.2h-54.2C194.4,278.1,218.2,254.3,247.7,253.5z"/>
			<path fill="#00A000" d="M305.1,307.6h-54.2v-54.2C280.4,254.3,304.2,278.1,305.1,307.6z"/>
			<path fill="#F4ED00" d="M193.6,310.8h54.2v54.2C218.2,364.1,194.4,340.3,193.6,310.8z"/>
			<path fill="#FF0000" d="M305.1,310.8c-0.8,29.6-24.6,53.4-54.2,54.2v-54.2H305.1z"/>
		</g>
		<path d="M272.2,283.7c-11.6-10.2-29.1-11.9-42.7-2.8c-15.2,10.2-20,30.3-11,46.2c9.9,17.6,32.3,23.1,49.2,12.5
			c13.5-8.5,19.2-24.6,15.1-39.1c-0.2-0.6-0.1-1.2,0.2-1.7l7.3-13.8c0.3-0.6-0.1-1.3-0.8-1.3l-15.6,0.6
			C273.2,284.3,272.6,284,272.2,283.7z"/>
		<g>
			<path fill="#FFFFFF" d="M241.9,302.6v2.3l-4.6,11.1H234l4.7-10.8H233v-2.7H241.9z"/>
			<path fill="#FFFFFF" d="M248.4,302.3c3.8,0,5.2,2.9,5.2,6.8c0,4-1.3,6.9-5.2,6.9c-3.8,0-5.2-2.9-5.2-6.9
				C243.2,305.2,244.5,302.3,248.4,302.3z M248.4,305.3c-1.9,0-2.1,1.8-2.1,3.9c0,2.1,0.2,3.9,2.1,3.9c1.9,0,2.1-1.8,2.1-3.9
				C250.5,307.1,250.3,305.3,248.4,305.3z"/>
			<path fill="#FFFFFF" d="M260.4,302.3c3.8,0,5.2,2.9,5.2,6.8c0,4-1.3,6.9-5.2,6.9c-3.8,0-5.2-2.9-5.2-6.9
				C255.2,305.2,256.6,302.3,260.4,302.3z M260.4,305.3c-1.9,0-2.1,1.8-2.1,3.9c0,2.1,0.2,3.9,2.1,3.9c1.9,0,2.1-1.8,2.1-3.9
				C262.5,307.1,262.3,305.3,260.4,305.3z"/>
		</g>
	</g>
</g>
<g>
</g>
<g>
</g>
<g>
</g>
<g>
</g>
<g>
</g>
</svg>
