<?xml version="1.0" encoding="utf-8"?>
<!-- Generator: Adobe Illustrator 17.1.0, SVG Export Plug-In . SVG Version: 6.00 Build 0)  -->
<!DOCTYPE svg PUBLIC "-//W3C//DTD SVG 1.1//EN" "http://www.w3.org/Graphics/SVG/1.1/DTD/svg11.dtd">
<svg version="1.1" id="Layer_1" xmlns="http://www.w3.org/2000/svg" xmlns:xlink="http://www.w3.org/1999/xlink" x="0px" y="0px"
	 viewBox="0 0 71.3 57.9" enable-background="new 0 0 71.3 57.9" xml:space="preserve">
<g>
	<g>
		<path fill="#FFFFFF" d="M56.5,44.9H14.8c-2.1,0-3.9-1.7-3.9-3.9V16.9c0-2.1,1.7-3.9,3.9-3.9h41.7c2.1,0,3.9,1.7,3.9,3.9V41
			C60.4,43.1,58.6,44.9,56.5,44.9z M14.8,15.5c-0.8,0-1.4,0.6-1.4,1.4V41c0,0.8,0.6,1.4,1.4,1.4h41.7c0.8,0,1.4-0.6,1.4-1.4V16.9
			c0-0.8-0.6-1.4-1.4-1.4H14.8z"/>
	</g>
	<g>
		<g>
			<rect x="18.4" y="22.3" fill="#FFFFFF" width="34.4" height="2.5"/>
		</g>
		<g>
			<rect x="18.4" y="27.7" fill="#FFFFFF" width="23.9" height="2.5"/>
		</g>
	</g>
</g>
<g>
</g>
<g>
</g>
<g>
</g>
<g>
</g>
<g>
</g>
</svg>
