<?xml version="1.0" encoding="utf-8"?>
<!-- Generator: Adobe Illustrator 17.1.0, SVG Export Plug-In . SVG Version: 6.00 Build 0)  -->
<!DOCTYPE svg PUBLIC "-//W3C//DTD SVG 1.1//EN" "http://www.w3.org/Graphics/SVG/1.1/DTD/svg11.dtd">
<svg version="1.1" id="Layer_1" xmlns="http://www.w3.org/2000/svg" xmlns:xlink="http://www.w3.org/1999/xlink" x="0px" y="0px"
	 viewBox="517.1 444.6 45 45" enable-background="new 517.1 444.6 45 45" xml:space="preserve">
<g>
	<g>
		<circle fill="#FFFFFF" cx="547" cy="459.7" r="1.6"/>
		<path fill="#FFFFFF" d="M539.7,460.2c-3.8,0-6.9,3.1-6.9,6.9c0,3.8,3.1,6.9,6.9,6.9c3.8,0,6.9-3.1,6.9-6.9
			C546.6,463.3,543.5,460.2,539.7,460.2z M539.7,471.5c-2.4,0-4.4-2-4.4-4.4s2-4.4,4.4-4.4c2.4,0,4.4,2,4.4,4.4
			S542.1,471.5,539.7,471.5z"/>
		<path fill="#FFFFFF" d="M545.2,481.1H534c-4.7,0-8.4-3.8-8.4-8.4v-11.2c0-4.7,3.8-8.4,8.4-8.4h11.2c4.7,0,8.4,3.8,8.4,8.4v11.2
			C553.6,477.4,549.9,481.1,545.2,481.1z M534,455.7c-3.2,0-5.8,2.6-5.8,5.8v11.2c0,3.2,2.6,5.8,5.8,5.8h11.2c3.2,0,5.8-2.6,5.8-5.8
			v-11.2c0-3.2-2.6-5.8-5.8-5.8H534z"/>
	</g>
</g>
</svg>
