<?xml version="1.0" encoding="utf-8"?>
<!-- Generator: Adobe Illustrator 17.1.0, SVG Export Plug-In . SVG Version: 6.00 Build 0)  -->
<!DOCTYPE svg PUBLIC "-//W3C//DTD SVG 1.1//EN" "http://www.w3.org/Graphics/SVG/1.1/DTD/svg11.dtd">
<svg version="1.1" id="Layer_1" xmlns="http://www.w3.org/2000/svg" xmlns:xlink="http://www.w3.org/1999/xlink" x="0px" y="0px"
	 viewBox="0 0 71.3 57.9" enable-background="new 0 0 71.3 57.9" xml:space="preserve">
<g>
	<g>
		<path fill="#7F7F7F" d="M51.3,25.3H19.9c-0.9,0-1.7-0.6-2.1-1.5c-0.3-0.9,0-1.8,0.7-2.4l15.7-12c0.7-0.6,1.9-0.6,2.6,0l15.7,12
			c0.8,0.6,1,1.5,0.7,2.4C53.1,24.7,52.3,25.3,51.3,25.3z M35.6,10.6c-0.1,0-0.2,0-0.3,0.1l-15.7,12c-0.3,0.2-0.2,0.5-0.2,0.6
			c0,0.1,0.2,0.4,0.5,0.4h31.4c0.4,0,0.5-0.3,0.5-0.4c0-0.1,0.1-0.4-0.2-0.6L36,10.7C35.9,10.6,35.7,10.6,35.6,10.6z"/>
	</g>
	<g>
		<g>
			<path fill="#7F7F7F" d="M53,42.3h-6.4V27.5H53V42.3z M48.2,40.7h3.2V29.1h-3.2V40.7z"/>
		</g>
		<g>
			<path fill="#7F7F7F" d="M25.3,42.3h-6.4V27.5h6.4V42.3z M20.5,40.7h3.2V29.1h-3.2V40.7z"/>
		</g>
	</g>
	<g>
		<path fill="#7F7F7F" d="M39.1,42.3h-6.4V27.5h6.4V42.3z M34.3,40.7h3.2V29.1h-3.2V40.7z"/>
	</g>
	<g>
		<path fill="#7F7F7F" d="M53,48.9H18.9V44H53V48.9z M20.5,47.3h30.9v-1.7H20.5V47.3z"/>
	</g>
</g>
<g>
</g>
<g>
</g>
<g>
</g>
<g>
</g>
<g>
</g>
</svg>
