<?xml version="1.0" encoding="utf-8"?>
<!-- Generator: Adobe Illustrator 17.1.0, SVG Export Plug-In . SVG Version: 6.00 Build 0)  -->
<!DOCTYPE svg PUBLIC "-//W3C//DTD SVG 1.1//EN" "http://www.w3.org/Graphics/SVG/1.1/DTD/svg11.dtd">
<svg version="1.1" id="Layer_1" xmlns="http://www.w3.org/2000/svg" xmlns:xlink="http://www.w3.org/1999/xlink" x="0px" y="0px"
	 viewBox="0 0 800 800" enable-background="new 0 0 800 800" xml:space="preserve">
<rect fill="none" width="800" height="800"/>
<g>
	<g>
		<rect x="541.7" y="436.3" fill="#E7E7E7" width="30.2" height="138.4"/>
		<g>
			<rect x="491.3" y="389.1" fill="#E1E1E1" width="30.2" height="185.6"/>
		</g>
		<g>
			<rect x="440.9" y="436.3" fill="#ECECEC" width="30.2" height="138.4"/>
		</g>
		<g>
			<rect x="642.5" y="483.5" fill="#F0F0F0" width="30.2" height="91.2"/>
		</g>
		<g>
			<rect x="592.1" y="460.7" fill="#ECECEC" width="30.2" height="114"/>
		</g>
		<rect x="390.5" y="483.5" fill="#F5F5F5" width="30.2" height="91.2"/>
		<g>
			<rect x="138.5" y="341.9" fill="#E1E1E1" width="30.2" height="232.8"/>
		</g>
		<g>
			<rect x="340.1" y="436.3" fill="#F0F0F0" width="30.2" height="138.4"/>
		</g>
		<g>
			<rect x="188.9" y="389.1" fill="#E7E7E7" width="30.2" height="185.6"/>
		</g>
		<rect x="239.3" y="413.5" fill="#ECECEC" width="30.2" height="161.2"/>
		<g>
			<rect x="289.7" y="460.7" fill="#F0F0F0" width="30.2" height="114"/>
		</g>
	</g>
	<g>
		<g>
			<g>
				<circle fill="#E1E1E1" cx="435.3" cy="215.2" r="25.8"/>
				<circle opacity="0.8" fill="#FFFFFF" cx="435.6" cy="215.2" r="20.7"/>
			</g>
		</g>
		<g>
			<circle fill="#E1E1E1" cx="435.7" cy="216.9" r="2.1"/>
		</g>
		<g>
			<polygon fill="#E1E1E1" points="435.9,217.7 444.8,209.3 444,208.4 435.9,216 421.4,203.2 420.6,204.1 			"/>
		</g>
	</g>
	<g>
		<g>
			<rect x="158.1" y="143.6" fill="none" stroke="#CDD9EF" stroke-miterlimit="10" width="489.8" height="481"/>
			<line fill="none" stroke="#CDD9EF" stroke-miterlimit="10" x1="158.1" y1="555.9" x2="647.9" y2="555.9"/>
			<line fill="none" stroke="#CDD9EF" stroke-miterlimit="10" x1="158.1" y1="487.3" x2="647.9" y2="487.3"/>
			<line fill="none" stroke="#CDD9EF" stroke-miterlimit="10" x1="158.1" y1="418.6" x2="647.9" y2="418.6"/>
			<line fill="none" stroke="#CDD9EF" stroke-miterlimit="10" x1="158.1" y1="350" x2="647.9" y2="350"/>
			<line fill="none" stroke="#CDD9EF" stroke-miterlimit="10" x1="158.1" y1="281.4" x2="647.9" y2="281.4"/>
			<line fill="none" stroke="#CDD9EF" stroke-miterlimit="10" x1="158.1" y1="212.7" x2="647.9" y2="212.7"/>
			<line fill="none" stroke="#CDD9EF" stroke-miterlimit="10" x1="566.3" y1="143.6" x2="566.3" y2="624.6"/>
			<line fill="none" stroke="#CDD9EF" stroke-miterlimit="10" x1="484.7" y1="143.6" x2="484.7" y2="624.6"/>
			<line fill="none" stroke="#CDD9EF" stroke-miterlimit="10" x1="403" y1="143.6" x2="403" y2="624.6"/>
			<line fill="none" stroke="#CDD9EF" stroke-miterlimit="10" x1="321.4" y1="143.6" x2="321.4" y2="624.6"/>
			<line fill="none" stroke="#CDD9EF" stroke-miterlimit="10" x1="239.7" y1="143.6" x2="239.7" y2="624.6"/>
		</g>
		<polygon fill="#0F0E20" points="656.7,250.8 563,271.5 580.2,291.8 509.1,349.1 473.3,304 473.2,304.1 472.7,303.4 348.2,403.8 
			328.6,379.1 328.6,379.1 305.2,349.7 127.3,493.1 150.6,522.5 299.4,402.6 342.4,456.7 348.3,451.9 467,356.3 503.3,402 
			503.5,401.8 503.5,401.8 604.6,320.4 622.1,340.9 		"/>
		<g>
			<circle fill="#FFDE6D" cx="227" cy="274.2" r="63.6"/>
			<circle fill="#FFC16E" cx="227" cy="274.2" r="52.2"/>
			<path fill="#E4A851" d="M222,229.7c28.8,0,52.2,23.4,52.2,52.2c0,6.2-1.1,12.1-3.1,17.6c4.2-7.5,6.6-16.1,6.6-25.3
				c0-28.8-23.4-52.2-52.2-52.2c-22.6,0-41.9,14.4-49.1,34.6C185.3,240.5,202.4,229.7,222,229.7z"/>
			<g>
				<path fill="#AE813E" d="M245.1,254.8h-13.3c2.3,1.9,4,4.5,4.5,8.2h8.8v4h-8.7c-0.8,8.2-7.3,13.5-17.7,13.8
					c6.3,6.5,13.1,14.8,19.9,23.1h-7.7c-6.3-7.6-12.2-14.6-19.8-22.7v-5h4.4c8.7,0,13.4-3.6,13.9-9.2h-18.4v-4h18.1
					c-1.1-4.7-5.4-7-12.4-7h-5.7v-5.2h33.9V254.8z"/>
			</g>
		</g>
		<g>
			<g>
				<path fill="#E4A851" d="M535.5,632.4v13.3c0,7.3,28.5,13.3,63.6,13.3s63.6-5.9,63.6-13.3v-13.3H535.5z"/>
				<ellipse fill="#FFDE6D" cx="599.1" cy="632.4" rx="63.6" ry="13.3"/>
				<ellipse fill="#FFC16E" cx="599.1" cy="630.8" rx="52.2" ry="9.3"/>
				<path fill="#E4A851" d="M594.1,622.9c28.8,0,52.2,4.2,52.2,9.3c0,1.1-1.1,2.2-3.1,3.2c4.2-1.3,6.6-2.9,6.6-4.5
					c0-5.2-23.4-9.3-52.2-9.3c-22.6,0-41.9,2.6-49.1,6.2C557.3,624.8,574.4,622.9,594.1,622.9z"/>
				<g>
					<path fill="#AE813E" d="M617.1,627.4h-13.3c2.3,0.3,4,0.8,4.5,1.5h8.8v0.7h-8.7c-0.8,1.5-7.3,2.4-17.7,2.5
						c6.3,1.2,13.1,2.6,19.9,4.1h-7.7c-6.3-1.4-12.2-2.6-19.8-4.1v-0.9h4.4c8.7,0,13.4-0.6,13.9-1.6h-18.4v-0.7h18.1
						c-1.1-0.8-5.4-1.3-12.4-1.3h-5.7v-0.9h33.9V627.4z"/>
				</g>
			</g>
			<g>
				<path fill="#E4A851" d="M535.5,614.9v13.3c0,7.3,28.5,13.3,63.6,13.3s63.6-5.9,63.6-13.3v-13.3H535.5z"/>
				<ellipse fill="#FFDE6D" cx="599.1" cy="614.9" rx="63.6" ry="13.3"/>
				<ellipse fill="#FFC16E" cx="599.1" cy="613.3" rx="52.2" ry="9.3"/>
				<path fill="#E4A851" d="M594.1,605.3c28.8,0,52.2,4.2,52.2,9.3c0,1.1-1.1,2.2-3.1,3.2c4.2-1.3,6.6-2.9,6.6-4.5
					c0-5.2-23.4-9.3-52.2-9.3c-22.6,0-41.9,2.6-49.1,6.2C557.3,607.3,574.4,605.3,594.1,605.3z"/>
				<g>
					<path fill="#AE813E" d="M617.1,609.8h-13.3c2.3,0.3,4,0.8,4.5,1.5h8.8v0.7h-8.7c-0.8,1.5-7.3,2.4-17.7,2.5
						c6.3,1.2,13.1,2.6,19.9,4.1h-7.7c-6.3-1.4-12.2-2.6-19.8-4.1v-0.9h4.4c8.7,0,13.4-0.6,13.9-1.6h-18.4v-0.7h18.1
						c-1.1-0.8-5.4-1.3-12.4-1.3h-5.7v-0.9h33.9V609.8z"/>
				</g>
			</g>
			<g>
				<path fill="#E4A851" d="M535.5,597.3v13.3c0,7.3,28.5,13.3,63.6,13.3s63.6-5.9,63.6-13.3v-13.3H535.5z"/>
				<ellipse fill="#FFDE6D" cx="599.1" cy="597.3" rx="63.6" ry="13.3"/>
				<ellipse fill="#FFC16E" cx="599.1" cy="595.7" rx="52.2" ry="9.3"/>
				<path fill="#E4A851" d="M594.1,587.8c28.8,0,52.2,4.2,52.2,9.3c0,1.1-1.1,2.2-3.1,3.2c4.2-1.3,6.6-2.9,6.6-4.5
					c0-5.2-23.4-9.3-52.2-9.3c-22.6,0-41.9,2.6-49.1,6.2C557.3,589.7,574.4,587.8,594.1,587.8z"/>
				<g>
					<path fill="#AE813E" d="M617.1,592.3h-13.3c2.3,0.3,4,0.8,4.5,1.5h8.8v0.7h-8.7c-0.8,1.5-7.3,2.4-17.7,2.5
						c6.3,1.2,13.1,2.6,19.9,4.1h-7.7c-6.3-1.4-12.2-2.6-19.8-4.1v-0.9h4.4c8.7,0,13.4-0.6,13.9-1.6h-18.4v-0.7h18.1
						c-1.1-0.8-5.4-1.3-12.4-1.3h-5.7v-0.9h33.9V592.3z"/>
				</g>
			</g>
			<g>
				<path fill="#E4A851" d="M535.5,579.8V593c0,7.3,28.5,13.3,63.6,13.3s63.6-5.9,63.6-13.3v-13.3H535.5z"/>
				<ellipse fill="#FFDE6D" cx="599.1" cy="579.8" rx="63.6" ry="13.3"/>
				<ellipse fill="#FFC16E" cx="599.1" cy="578.2" rx="52.2" ry="9.3"/>
				<path fill="#E4A851" d="M594.1,570.2c28.8,0,52.2,4.2,52.2,9.3c0,1.1-1.1,2.2-3.1,3.2c4.2-1.3,6.6-2.9,6.6-4.5
					c0-5.2-23.4-9.3-52.2-9.3c-22.6,0-41.9,2.6-49.1,6.2C557.3,572.2,574.4,570.2,594.1,570.2z"/>
				<g>
					<path fill="#AE813E" d="M617.1,574.7h-13.3c2.3,0.3,4,0.8,4.5,1.5h8.8v0.7h-8.7c-0.8,1.5-7.3,2.4-17.7,2.5
						c6.3,1.2,13.1,2.6,19.9,4.1h-7.7c-6.3-1.4-12.2-2.6-19.8-4.1v-0.9h4.4c8.7,0,13.4-0.6,13.9-1.6h-18.4v-0.7h18.1
						c-1.1-0.8-5.4-1.3-12.4-1.3h-5.7V574h33.9V574.7z"/>
				</g>
			</g>
			<g>
				<path fill="#E4A851" d="M535.5,562.2v13.3c0,7.3,28.5,13.3,63.6,13.3s63.6-5.9,63.6-13.3v-13.3H535.5z"/>
				<ellipse fill="#FFDE6D" cx="599.1" cy="562.2" rx="63.6" ry="13.3"/>
				<ellipse fill="#FFC16E" cx="599.1" cy="560.6" rx="52.2" ry="9.3"/>
				<path fill="#E4A851" d="M594.1,552.7c28.8,0,52.2,4.2,52.2,9.3c0,1.1-1.1,2.2-3.1,3.2c4.2-1.3,6.6-2.9,6.6-4.5
					c0-5.2-23.4-9.3-52.2-9.3c-22.6,0-41.9,2.6-49.1,6.2C557.3,554.6,574.4,552.7,594.1,552.7z"/>
				<g>
					<path fill="#AE813E" d="M617.1,557.2h-13.3c2.3,0.3,4,0.8,4.5,1.5h8.8v0.7h-8.7c-0.8,1.5-7.3,2.4-17.7,2.5
						c6.3,1.2,13.1,2.6,19.9,4.1h-7.7c-6.3-1.4-12.2-2.6-19.8-4.1V561h4.4c8.7,0,13.4-0.6,13.9-1.6h-18.4v-0.7h18.1
						c-1.1-0.8-5.4-1.3-12.4-1.3h-5.7v-0.9h33.9V557.2z"/>
				</g>
			</g>
			<g>
				<path fill="#E4A851" d="M535.5,544.7v13.3c0,7.3,28.5,13.3,63.6,13.3s63.6-5.9,63.6-13.3v-13.3H535.5z"/>
				<ellipse fill="#FFDE6D" cx="599.1" cy="544.7" rx="63.6" ry="13.3"/>
				<ellipse fill="#FFC16E" cx="599.1" cy="543.1" rx="52.2" ry="9.3"/>
				<path fill="#E4A851" d="M594.1,535.1c28.8,0,52.2,4.2,52.2,9.3c0,1.1-1.1,2.2-3.1,3.2c4.2-1.3,6.6-2.9,6.6-4.5
					c0-5.2-23.4-9.3-52.2-9.3c-22.6,0-41.9,2.6-49.1,6.2C557.3,537.1,574.4,535.1,594.1,535.1z"/>
				<g>
					<path fill="#AE813E" d="M617.1,539.6h-13.3c2.3,0.3,4,0.8,4.5,1.5h8.8v0.7h-8.7c-0.8,1.5-7.3,2.4-17.7,2.5
						c6.3,1.2,13.1,2.6,19.9,4.1h-7.7c-6.3-1.4-12.2-2.6-19.8-4.1v-0.9h4.4c8.7,0,13.4-0.6,13.9-1.6h-18.4v-0.7h18.1
						c-1.1-0.8-5.4-1.3-12.4-1.3h-5.7v-0.9h33.9V539.6z"/>
				</g>
			</g>
			<g>
				<path fill="#E4A851" d="M535.5,527.1v13.3c0,7.3,28.5,13.3,63.6,13.3s63.6-5.9,63.6-13.3v-13.3H535.5z"/>
				<ellipse fill="#FFDE6D" cx="599.1" cy="527.1" rx="63.6" ry="13.3"/>
				<ellipse fill="#FFC16E" cx="599.1" cy="525.5" rx="52.2" ry="9.3"/>
				<path fill="#E4A851" d="M594.1,517.6c28.8,0,52.2,4.2,52.2,9.3c0,1.1-1.1,2.2-3.1,3.2c4.2-1.3,6.6-2.9,6.6-4.5
					c0-5.2-23.4-9.3-52.2-9.3c-22.6,0-41.9,2.6-49.1,6.2C557.3,519.5,574.4,517.6,594.1,517.6z"/>
				<g>
					<path fill="#AE813E" d="M617.1,522.1h-13.3c2.3,0.3,4,0.8,4.5,1.5h8.8v0.7h-8.7c-0.8,1.5-7.3,2.4-17.7,2.5
						c6.3,1.2,13.1,2.6,19.9,4.1h-7.7c-6.3-1.4-12.2-2.6-19.8-4.1v-0.9h4.4c8.7,0,13.4-0.6,13.9-1.6h-18.4v-0.7h18.1
						c-1.1-0.8-5.4-1.3-12.4-1.3h-5.7v-0.9h33.9V522.1z"/>
				</g>
			</g>
			<g>
				<path fill="#E4A851" d="M535.5,509.6v13.3c0,7.3,28.5,13.3,63.6,13.3s63.6-5.9,63.6-13.3v-13.3H535.5z"/>
				<ellipse fill="#FFDE6D" cx="599.1" cy="509.6" rx="63.6" ry="13.3"/>
				<ellipse fill="#FFC16E" cx="599.1" cy="508" rx="52.2" ry="9.3"/>
				<path fill="#E4A851" d="M594.1,500c28.8,0,52.2,4.2,52.2,9.3c0,1.1-1.1,2.2-3.1,3.2c4.2-1.3,6.6-2.9,6.6-4.5
					c0-5.2-23.4-9.3-52.2-9.3c-22.6,0-41.9,2.6-49.1,6.2C557.3,502,574.4,500,594.1,500z"/>
				<g>
					<path fill="#AE813E" d="M617.1,504.5h-13.3c2.3,0.3,4,0.8,4.5,1.5h8.8v0.7h-8.7c-0.8,1.5-7.3,2.4-17.7,2.5
						c6.3,1.2,13.1,2.6,19.9,4.1h-7.7c-6.3-1.4-12.2-2.6-19.8-4.1v-0.9h4.4c8.7,0,13.4-0.6,13.9-1.6h-18.4V506h18.1
						c-1.1-0.8-5.4-1.3-12.4-1.3h-5.7v-0.9h33.9V504.5z"/>
				</g>
			</g>
			<g>
				<path fill="#E4A851" d="M535.5,492v13.3c0,7.3,28.5,13.3,63.6,13.3s63.6-5.9,63.6-13.3V492H535.5z"/>
				<ellipse fill="#FFDE6D" cx="599.1" cy="492" rx="63.6" ry="13.3"/>
				<ellipse fill="#FFC16E" cx="599.1" cy="490.4" rx="52.2" ry="9.3"/>
				<path fill="#E4A851" d="M594.1,482.5c28.8,0,52.2,4.2,52.2,9.3c0,1.1-1.1,2.2-3.1,3.2c4.2-1.3,6.6-2.9,6.6-4.5
					c0-5.2-23.4-9.3-52.2-9.3c-22.6,0-41.9,2.6-49.1,6.2C557.3,484.4,574.4,482.5,594.1,482.5z"/>
				<g>
					<path fill="#AE813E" d="M617.1,487h-13.3c2.3,0.3,4,0.8,4.5,1.5h8.8v0.7h-8.7c-0.8,1.5-7.3,2.4-17.7,2.5
						c6.3,1.2,13.1,2.6,19.9,4.1h-7.7c-6.3-1.4-12.2-2.6-19.8-4.1v-0.9h4.4c8.7,0,13.4-0.6,13.9-1.6h-18.4v-0.7h18.1
						c-1.1-0.8-5.4-1.3-12.4-1.3h-5.7v-0.9h33.9V487z"/>
				</g>
			</g>
			<g>
				<path fill="#E4A851" d="M535.5,474.5v13.3c0,7.3,28.5,13.3,63.6,13.3s63.6-5.9,63.6-13.3v-13.3H535.5z"/>
				<ellipse fill="#FFDE6D" cx="599.1" cy="474.5" rx="63.6" ry="13.3"/>
				<ellipse fill="#FFC16E" cx="599.1" cy="472.9" rx="52.2" ry="9.3"/>
				<path fill="#E4A851" d="M594.1,464.9c28.8,0,52.2,4.2,52.2,9.3c0,1.1-1.1,2.2-3.1,3.2c4.2-1.3,6.6-2.9,6.6-4.5
					c0-5.2-23.4-9.3-52.2-9.3c-22.6,0-41.9,2.6-49.1,6.2C557.3,466.9,574.4,464.9,594.1,464.9z"/>
				<g>
					<path fill="#AE813E" d="M617.1,469.4h-13.3c2.3,0.3,4,0.8,4.5,1.5h8.8v0.7h-8.7c-0.8,1.5-7.3,2.4-17.7,2.5
						c6.3,1.2,13.1,2.6,19.9,4.1h-7.7c-6.3-1.4-12.2-2.6-19.8-4.1v-0.9h4.4c8.7,0,13.4-0.6,13.9-1.6h-18.4v-0.7h18.1
						c-1.1-0.8-5.4-1.3-12.4-1.3h-5.7v-0.9h33.9V469.4z"/>
				</g>
			</g>
			<g>
				<path fill="#E4A851" d="M535.5,456.9v13.3c0,7.3,28.5,13.3,63.6,13.3s63.6-5.9,63.6-13.3v-13.3H535.5z"/>
				<ellipse fill="#FFDE6D" cx="599.1" cy="456.9" rx="63.6" ry="13.3"/>
				<ellipse fill="#FFC16E" cx="599.1" cy="455.4" rx="52.2" ry="9.3"/>
				<path fill="#E4A851" d="M594.1,447.4c28.8,0,52.2,4.2,52.2,9.3c0,1.1-1.1,2.2-3.1,3.2c4.2-1.3,6.6-2.9,6.6-4.5
					c0-5.2-23.4-9.3-52.2-9.3c-22.6,0-41.9,2.6-49.1,6.2C557.3,449.3,574.4,447.4,594.1,447.4z"/>
				<g>
					<path fill="#AE813E" d="M617.1,451.9h-13.3c2.3,0.3,4,0.8,4.5,1.5h8.8v0.7h-8.7c-0.8,1.5-7.3,2.4-17.7,2.5
						c6.3,1.2,13.1,2.6,19.9,4.1h-7.7c-6.3-1.4-12.2-2.6-19.8-4.1v-0.9h4.4c8.7,0,13.4-0.6,13.9-1.6h-18.4v-0.7h18.1
						c-1.1-0.8-5.4-1.3-12.4-1.3h-5.7v-0.9h33.9V451.9z"/>
				</g>
			</g>
			<g>
				<path fill="#E4A851" d="M535.5,439.4v13.3c0,7.3,28.5,13.3,63.6,13.3s63.6-5.9,63.6-13.3v-13.3H535.5z"/>
				<ellipse fill="#FFDE6D" cx="599.1" cy="439.4" rx="63.6" ry="13.3"/>
				<ellipse fill="#FFC16E" cx="599.1" cy="437.8" rx="52.2" ry="9.3"/>
				<path fill="#E4A851" d="M594.1,429.8c28.8,0,52.2,4.2,52.2,9.3c0,1.1-1.1,2.2-3.1,3.2c4.2-1.3,6.6-2.9,6.6-4.5
					c0-5.2-23.4-9.3-52.2-9.3c-22.6,0-41.9,2.6-49.1,6.2C557.3,431.8,574.4,429.8,594.1,429.8z"/>
				<g>
					<path fill="#AE813E" d="M617.1,434.3h-13.3c2.3,0.3,4,0.8,4.5,1.5h8.8v0.7h-8.7c-0.8,1.5-7.3,2.4-17.7,2.5
						c6.3,1.2,13.1,2.6,19.9,4.1h-7.7c-6.3-1.4-12.2-2.6-19.8-4.1v-0.9h4.4c8.7,0,13.4-0.6,13.9-1.6h-18.4v-0.7h18.1
						c-1.1-0.8-5.4-1.3-12.4-1.3h-5.7v-0.9h33.9V434.3z"/>
				</g>
			</g>
			<g>
				<path fill="#E4A851" d="M535.5,421.8v13.3c0,7.3,28.5,13.3,63.6,13.3s63.6-5.9,63.6-13.3v-13.3H535.5z"/>
				<ellipse fill="#FFDE6D" cx="599.1" cy="421.8" rx="63.6" ry="13.3"/>
				<ellipse fill="#FFC16E" cx="599.1" cy="420.3" rx="52.2" ry="9.3"/>
				<path fill="#E4A851" d="M594.1,412.3c28.8,0,52.2,4.2,52.2,9.3c0,1.1-1.1,2.2-3.1,3.2c4.2-1.3,6.6-2.9,6.6-4.5
					c0-5.2-23.4-9.3-52.2-9.3c-22.6,0-41.9,2.6-49.1,6.2C557.3,414.2,574.4,412.3,594.1,412.3z"/>
				<g>
					<path fill="#AE813E" d="M617.1,416.8h-13.3c2.3,0.3,4,0.8,4.5,1.5h8.8v0.7h-8.7c-0.8,1.5-7.3,2.4-17.7,2.5
						c6.3,1.2,13.1,2.6,19.9,4.1h-7.7c-6.3-1.4-12.2-2.6-19.8-4.1v-0.9h4.4c8.7,0,13.4-0.6,13.9-1.6h-18.4v-0.7h18.1
						c-1.1-0.8-5.4-1.3-12.4-1.3h-5.7v-0.9h33.9V416.8z"/>
				</g>
			</g>
		</g>
		<g>
			<g>
				<path fill="#E4A851" d="M339.5,632.4v13.3c0,7.3,28.5,13.3,63.6,13.3s63.6-5.9,63.6-13.3v-13.3H339.5z"/>
				<ellipse fill="#FFDE6D" cx="403" cy="632.4" rx="63.6" ry="13.3"/>
				<ellipse fill="#FFC16E" cx="403" cy="630.8" rx="52.2" ry="9.3"/>
				<path fill="#E4A851" d="M398,622.9c28.8,0,52.2,4.2,52.2,9.3c0,1.1-1.1,2.2-3.1,3.2c4.2-1.3,6.6-2.9,6.6-4.5
					c0-5.2-23.4-9.3-52.2-9.3c-22.6,0-41.9,2.6-49.1,6.2C361.3,624.8,378.4,622.9,398,622.9z"/>
				<g>
					<path fill="#AE813E" d="M421,627.4h-13.3c2.3,0.3,4,0.8,4.5,1.5h8.8v0.7h-8.7c-0.8,1.5-7.3,2.4-17.7,2.5
						c6.3,1.2,13.1,2.6,19.9,4.1h-7.7c-6.3-1.4-12.2-2.6-19.8-4.1v-0.9h4.4c8.7,0,13.4-0.6,13.9-1.6h-18.4v-0.7h18.1
						c-1.1-0.8-5.4-1.3-12.4-1.3h-5.7v-0.9H421V627.4z"/>
				</g>
			</g>
			<g>
				<path fill="#E4A851" d="M339.5,614.9v13.3c0,7.3,28.5,13.3,63.6,13.3s63.6-5.9,63.6-13.3v-13.3H339.5z"/>
				<ellipse fill="#FFDE6D" cx="403" cy="614.9" rx="63.6" ry="13.3"/>
				<ellipse fill="#FFC16E" cx="403" cy="613.3" rx="52.2" ry="9.3"/>
				<path fill="#E4A851" d="M398,605.3c28.8,0,52.2,4.2,52.2,9.3c0,1.1-1.1,2.2-3.1,3.2c4.2-1.3,6.6-2.9,6.6-4.5
					c0-5.2-23.4-9.3-52.2-9.3c-22.6,0-41.9,2.6-49.1,6.2C361.3,607.3,378.4,605.3,398,605.3z"/>
				<g>
					<path fill="#AE813E" d="M421,609.8h-13.3c2.3,0.3,4,0.8,4.5,1.5h8.8v0.7h-8.7c-0.8,1.5-7.3,2.4-17.7,2.5
						c6.3,1.2,13.1,2.6,19.9,4.1h-7.7c-6.3-1.4-12.2-2.6-19.8-4.1v-0.9h4.4c8.7,0,13.4-0.6,13.9-1.6h-18.4v-0.7h18.1
						c-1.1-0.8-5.4-1.3-12.4-1.3h-5.7v-0.9H421V609.8z"/>
				</g>
			</g>
			<g>
				<path fill="#E4A851" d="M339.5,597.3v13.3c0,7.3,28.5,13.3,63.6,13.3s63.6-5.9,63.6-13.3v-13.3H339.5z"/>
				<ellipse fill="#FFDE6D" cx="403" cy="597.3" rx="63.6" ry="13.3"/>
				<ellipse fill="#FFC16E" cx="403" cy="595.7" rx="52.2" ry="9.3"/>
				<path fill="#E4A851" d="M398,587.8c28.8,0,52.2,4.2,52.2,9.3c0,1.1-1.1,2.2-3.1,3.2c4.2-1.3,6.6-2.9,6.6-4.5
					c0-5.2-23.4-9.3-52.2-9.3c-22.6,0-41.9,2.6-49.1,6.2C361.3,589.7,378.4,587.8,398,587.8z"/>
				<g>
					<path fill="#AE813E" d="M421,592.3h-13.3c2.3,0.3,4,0.8,4.5,1.5h8.8v0.7h-8.7c-0.8,1.5-7.3,2.4-17.7,2.5
						c6.3,1.2,13.1,2.6,19.9,4.1h-7.7c-6.3-1.4-12.2-2.6-19.8-4.1v-0.9h4.4c8.7,0,13.4-0.6,13.9-1.6h-18.4v-0.7h18.1
						c-1.1-0.8-5.4-1.3-12.4-1.3h-5.7v-0.9H421V592.3z"/>
				</g>
			</g>
			<g>
				<path fill="#E4A851" d="M339.5,579.8V593c0,7.3,28.5,13.3,63.6,13.3s63.6-5.9,63.6-13.3v-13.3H339.5z"/>
				<ellipse fill="#FFDE6D" cx="403" cy="579.8" rx="63.6" ry="13.3"/>
				<ellipse fill="#FFC16E" cx="403" cy="578.2" rx="52.2" ry="9.3"/>
				<path fill="#E4A851" d="M398,570.2c28.8,0,52.2,4.2,52.2,9.3c0,1.1-1.1,2.2-3.1,3.2c4.2-1.3,6.6-2.9,6.6-4.5
					c0-5.2-23.4-9.3-52.2-9.3c-22.6,0-41.9,2.6-49.1,6.2C361.3,572.2,378.4,570.2,398,570.2z"/>
				<g>
					<path fill="#AE813E" d="M421,574.7h-13.3c2.3,0.3,4,0.8,4.5,1.5h8.8v0.7h-8.7c-0.8,1.5-7.3,2.4-17.7,2.5
						c6.3,1.2,13.1,2.6,19.9,4.1h-7.7c-6.3-1.4-12.2-2.6-19.8-4.1v-0.9h4.4c8.7,0,13.4-0.6,13.9-1.6h-18.4v-0.7h18.1
						c-1.1-0.8-5.4-1.3-12.4-1.3h-5.7V574H421V574.7z"/>
				</g>
			</g>
			<g>
				<path fill="#E4A851" d="M339.5,562.2v13.3c0,7.3,28.5,13.3,63.6,13.3s63.6-5.9,63.6-13.3v-13.3H339.5z"/>
				<ellipse fill="#FFDE6D" cx="403" cy="562.2" rx="63.6" ry="13.3"/>
				<ellipse fill="#FFC16E" cx="403" cy="560.6" rx="52.2" ry="9.3"/>
				<path fill="#E4A851" d="M398,552.7c28.8,0,52.2,4.2,52.2,9.3c0,1.1-1.1,2.2-3.1,3.2c4.2-1.3,6.6-2.9,6.6-4.5
					c0-5.2-23.4-9.3-52.2-9.3c-22.6,0-41.9,2.6-49.1,6.2C361.3,554.6,378.4,552.7,398,552.7z"/>
				<g>
					<path fill="#AE813E" d="M421,557.2h-13.3c2.3,0.3,4,0.8,4.5,1.5h8.8v0.7h-8.7c-0.8,1.5-7.3,2.4-17.7,2.5
						c6.3,1.2,13.1,2.6,19.9,4.1h-7.7c-6.3-1.4-12.2-2.6-19.8-4.1V561h4.4c8.7,0,13.4-0.6,13.9-1.6h-18.4v-0.7h18.1
						c-1.1-0.8-5.4-1.3-12.4-1.3h-5.7v-0.9H421V557.2z"/>
				</g>
			</g>
			<g>
				<path fill="#E4A851" d="M339.5,544.7v13.3c0,7.3,28.5,13.3,63.6,13.3s63.6-5.9,63.6-13.3v-13.3H339.5z"/>
				<ellipse fill="#FFDE6D" cx="403" cy="544.7" rx="63.6" ry="13.3"/>
				<ellipse fill="#FFC16E" cx="403" cy="543.1" rx="52.2" ry="9.3"/>
				<path fill="#E4A851" d="M398,535.1c28.8,0,52.2,4.2,52.2,9.3c0,1.1-1.1,2.2-3.1,3.2c4.2-1.3,6.6-2.9,6.6-4.5
					c0-5.2-23.4-9.3-52.2-9.3c-22.6,0-41.9,2.6-49.1,6.2C361.3,537.1,378.4,535.1,398,535.1z"/>
				<g>
					<path fill="#AE813E" d="M421,539.6h-13.3c2.3,0.3,4,0.8,4.5,1.5h8.8v0.7h-8.7c-0.8,1.5-7.3,2.4-17.7,2.5
						c6.3,1.2,13.1,2.6,19.9,4.1h-7.7c-6.3-1.4-12.2-2.6-19.8-4.1v-0.9h4.4c8.7,0,13.4-0.6,13.9-1.6h-18.4v-0.7h18.1
						c-1.1-0.8-5.4-1.3-12.4-1.3h-5.7v-0.9H421V539.6z"/>
				</g>
			</g>
			<g>
				<path fill="#E4A851" d="M339.5,527.1v13.3c0,7.3,28.5,13.3,63.6,13.3s63.6-5.9,63.6-13.3v-13.3H339.5z"/>
				<ellipse fill="#FFDE6D" cx="403" cy="527.1" rx="63.6" ry="13.3"/>
				<ellipse fill="#FFC16E" cx="403" cy="525.5" rx="52.2" ry="9.3"/>
				<path fill="#E4A851" d="M398,517.6c28.8,0,52.2,4.2,52.2,9.3c0,1.1-1.1,2.2-3.1,3.2c4.2-1.3,6.6-2.9,6.6-4.5
					c0-5.2-23.4-9.3-52.2-9.3c-22.6,0-41.9,2.6-49.1,6.2C361.3,519.5,378.4,517.6,398,517.6z"/>
				<g>
					<path fill="#AE813E" d="M421,522.1h-13.3c2.3,0.3,4,0.8,4.5,1.5h8.8v0.7h-8.7c-0.8,1.5-7.3,2.4-17.7,2.5
						c6.3,1.2,13.1,2.6,19.9,4.1h-7.7c-6.3-1.4-12.2-2.6-19.8-4.1v-0.9h4.4c8.7,0,13.4-0.6,13.9-1.6h-18.4v-0.7h18.1
						c-1.1-0.8-5.4-1.3-12.4-1.3h-5.7v-0.9H421V522.1z"/>
				</g>
			</g>
			<g>
				<path fill="#E4A851" d="M339.5,509.6v13.3c0,7.3,28.5,13.3,63.6,13.3s63.6-5.9,63.6-13.3v-13.3H339.5z"/>
				<ellipse fill="#FFDE6D" cx="403" cy="509.6" rx="63.6" ry="13.3"/>
				<ellipse fill="#FFC16E" cx="403" cy="508" rx="52.2" ry="9.3"/>
				<path fill="#E4A851" d="M398,500c28.8,0,52.2,4.2,52.2,9.3c0,1.1-1.1,2.2-3.1,3.2c4.2-1.3,6.6-2.9,6.6-4.5
					c0-5.2-23.4-9.3-52.2-9.3c-22.6,0-41.9,2.6-49.1,6.2C361.3,502,378.4,500,398,500z"/>
				<g>
					<path fill="#AE813E" d="M421,504.5h-13.3c2.3,0.3,4,0.8,4.5,1.5h8.8v0.7h-8.7c-0.8,1.5-7.3,2.4-17.7,2.5
						c6.3,1.2,13.1,2.6,19.9,4.1h-7.7c-6.3-1.4-12.2-2.6-19.8-4.1v-0.9h4.4c8.7,0,13.4-0.6,13.9-1.6h-18.4V506h18.1
						c-1.1-0.8-5.4-1.3-12.4-1.3h-5.7v-0.9H421V504.5z"/>
				</g>
			</g>
			<g>
				<path fill="#E4A851" d="M339.5,492v13.3c0,7.3,28.5,13.3,63.6,13.3s63.6-5.9,63.6-13.3V492H339.5z"/>
				<ellipse fill="#FFDE6D" cx="403" cy="492" rx="63.6" ry="13.3"/>
				<ellipse fill="#FFC16E" cx="403" cy="490.4" rx="52.2" ry="9.3"/>
				<path fill="#E4A851" d="M398,482.5c28.8,0,52.2,4.2,52.2,9.3c0,1.1-1.1,2.2-3.1,3.2c4.2-1.3,6.6-2.9,6.6-4.5
					c0-5.2-23.4-9.3-52.2-9.3c-22.6,0-41.9,2.6-49.1,6.2C361.3,484.4,378.4,482.5,398,482.5z"/>
				<g>
					<path fill="#AE813E" d="M421,487h-13.3c2.3,0.3,4,0.8,4.5,1.5h8.8v0.7h-8.7c-0.8,1.5-7.3,2.4-17.7,2.5
						c6.3,1.2,13.1,2.6,19.9,4.1h-7.7c-6.3-1.4-12.2-2.6-19.8-4.1v-0.9h4.4c8.7,0,13.4-0.6,13.9-1.6h-18.4v-0.7h18.1
						c-1.1-0.8-5.4-1.3-12.4-1.3h-5.7v-0.9H421V487z"/>
				</g>
			</g>
		</g>
		<g>
			<g>
				<path fill="#E4A851" d="M145.5,632.4v13.3c0,7.3,28.5,13.3,63.6,13.3c35.1,0,63.6-5.9,63.6-13.3v-13.3H145.5z"/>
				<ellipse fill="#FFDE6D" cx="209" cy="632.4" rx="63.6" ry="13.3"/>
				<ellipse fill="#FFC16E" cx="209" cy="630.8" rx="52.2" ry="9.3"/>
				<path fill="#E4A851" d="M204,622.9c28.8,0,52.2,4.2,52.2,9.3c0,1.1-1.1,2.2-3.1,3.2c4.2-1.3,6.6-2.9,6.6-4.5
					c0-5.2-23.4-9.3-52.2-9.3c-22.6,0-41.9,2.6-49.1,6.2C167.3,624.8,184.4,622.9,204,622.9z"/>
				<g>
					<path fill="#AE813E" d="M227,627.4h-13.3c2.3,0.3,4,0.8,4.5,1.5h8.8v0.7h-8.7c-0.8,1.5-7.3,2.4-17.7,2.5
						c6.3,1.2,13.1,2.6,19.9,4.1h-7.7c-6.3-1.4-12.2-2.6-19.8-4.1v-0.9h4.4c8.7,0,13.4-0.6,13.9-1.6h-18.4v-0.7h18.1
						c-1.1-0.8-5.4-1.3-12.4-1.3h-5.7v-0.9H227V627.4z"/>
				</g>
			</g>
			<g>
				<path fill="#E4A851" d="M145.5,614.9v13.3c0,7.3,28.5,13.3,63.6,13.3c35.1,0,63.6-5.9,63.6-13.3v-13.3H145.5z"/>
				<ellipse fill="#FFDE6D" cx="209" cy="614.9" rx="63.6" ry="13.3"/>
				<ellipse fill="#FFC16E" cx="209" cy="613.3" rx="52.2" ry="9.3"/>
				<path fill="#E4A851" d="M204,605.3c28.8,0,52.2,4.2,52.2,9.3c0,1.1-1.1,2.2-3.1,3.2c4.2-1.3,6.6-2.9,6.6-4.5
					c0-5.2-23.4-9.3-52.2-9.3c-22.6,0-41.9,2.6-49.1,6.2C167.3,607.3,184.4,605.3,204,605.3z"/>
				<g>
					<path fill="#AE813E" d="M227,609.8h-13.3c2.3,0.3,4,0.8,4.5,1.5h8.8v0.7h-8.7c-0.8,1.5-7.3,2.4-17.7,2.5
						c6.3,1.2,13.1,2.6,19.9,4.1h-7.7c-6.3-1.4-12.2-2.6-19.8-4.1v-0.9h4.4c8.7,0,13.4-0.6,13.9-1.6h-18.4v-0.7h18.1
						c-1.1-0.8-5.4-1.3-12.4-1.3h-5.7v-0.9H227V609.8z"/>
				</g>
			</g>
			<g>
				<path fill="#E4A851" d="M145.5,597.3v13.3c0,7.3,28.5,13.3,63.6,13.3c35.1,0,63.6-5.9,63.6-13.3v-13.3H145.5z"/>
				<ellipse fill="#FFDE6D" cx="209" cy="597.3" rx="63.6" ry="13.3"/>
				<ellipse fill="#FFC16E" cx="209" cy="595.7" rx="52.2" ry="9.3"/>
				<path fill="#E4A851" d="M204,587.8c28.8,0,52.2,4.2,52.2,9.3c0,1.1-1.1,2.2-3.1,3.2c4.2-1.3,6.6-2.9,6.6-4.5
					c0-5.2-23.4-9.3-52.2-9.3c-22.6,0-41.9,2.6-49.1,6.2C167.3,589.7,184.4,587.8,204,587.8z"/>
				<g>
					<path fill="#AE813E" d="M227,592.3h-13.3c2.3,0.3,4,0.8,4.5,1.5h8.8v0.7h-8.7c-0.8,1.5-7.3,2.4-17.7,2.5
						c6.3,1.2,13.1,2.6,19.9,4.1h-7.7c-6.3-1.4-12.2-2.6-19.8-4.1v-0.9h4.4c8.7,0,13.4-0.6,13.9-1.6h-18.4v-0.7h18.1
						c-1.1-0.8-5.4-1.3-12.4-1.3h-5.7v-0.9H227V592.3z"/>
				</g>
			</g>
			<g>
				<path fill="#E4A851" d="M145.5,579.8V593c0,7.3,28.5,13.3,63.6,13.3c35.1,0,63.6-5.9,63.6-13.3v-13.3H145.5z"/>
				<ellipse fill="#FFDE6D" cx="209" cy="579.8" rx="63.6" ry="13.3"/>
				<ellipse fill="#FFC16E" cx="209" cy="578.2" rx="52.2" ry="9.3"/>
				<path fill="#E4A851" d="M204,570.2c28.8,0,52.2,4.2,52.2,9.3c0,1.1-1.1,2.2-3.1,3.2c4.2-1.3,6.6-2.9,6.6-4.5
					c0-5.2-23.4-9.3-52.2-9.3c-22.6,0-41.9,2.6-49.1,6.2C167.3,572.2,184.4,570.2,204,570.2z"/>
				<g>
					<path fill="#AE813E" d="M227,574.7h-13.3c2.3,0.3,4,0.8,4.5,1.5h8.8v0.7h-8.7c-0.8,1.5-7.3,2.4-17.7,2.5
						c6.3,1.2,13.1,2.6,19.9,4.1h-7.7c-6.3-1.4-12.2-2.6-19.8-4.1v-0.9h4.4c8.7,0,13.4-0.6,13.9-1.6h-18.4v-0.7h18.1
						c-1.1-0.8-5.4-1.3-12.4-1.3h-5.7V574H227V574.7z"/>
				</g>
			</g>
			<g>
				<path fill="#E4A851" d="M145.5,562.2v13.3c0,7.3,28.5,13.3,63.6,13.3c35.1,0,63.6-5.9,63.6-13.3v-13.3H145.5z"/>
				<ellipse fill="#FFDE6D" cx="209" cy="562.2" rx="63.6" ry="13.3"/>
				<ellipse fill="#FFC16E" cx="209" cy="560.6" rx="52.2" ry="9.3"/>
				<path fill="#E4A851" d="M204,552.7c28.8,0,52.2,4.2,52.2,9.3c0,1.1-1.1,2.2-3.1,3.2c4.2-1.3,6.6-2.9,6.6-4.5
					c0-5.2-23.4-9.3-52.2-9.3c-22.6,0-41.9,2.6-49.1,6.2C167.3,554.6,184.4,552.7,204,552.7z"/>
				<g>
					<path fill="#AE813E" d="M227,557.2h-13.3c2.3,0.3,4,0.8,4.5,1.5h8.8v0.7h-8.7c-0.8,1.5-7.3,2.4-17.7,2.5
						c6.3,1.2,13.1,2.6,19.9,4.1h-7.7c-6.3-1.4-12.2-2.6-19.8-4.1V561h4.4c8.7,0,13.4-0.6,13.9-1.6h-18.4v-0.7h18.1
						c-1.1-0.8-5.4-1.3-12.4-1.3h-5.7v-0.9H227V557.2z"/>
				</g>
			</g>
		</g>
	</g>
</g>
<g>
</g>
<g>
</g>
<g>
</g>
<g>
</g>
<g>
</g>
</svg>
