<?xml version="1.0" encoding="utf-8"?>
<!-- Generator: Adobe Illustrator 17.1.0, SVG Export Plug-In . SVG Version: 6.00 Build 0)  -->
<!DOCTYPE svg PUBLIC "-//W3C//DTD SVG 1.1//EN" "http://www.w3.org/Graphics/SVG/1.1/DTD/svg11.dtd">
<svg version="1.1" id="Layer_1" xmlns="http://www.w3.org/2000/svg" xmlns:xlink="http://www.w3.org/1999/xlink" x="0px" y="0px"
	 viewBox="0 0 800 800" enable-background="new 0 0 800 800" xml:space="preserve">
<g>
	<g>
		<rect x="5" y="608.7" fill="#ECECEC" width="705.6" height="0.4"/>
		<rect x="79.1" y="623.5" fill="#ECECEC" width="51.4" height="0.4"/>
		<rect x="236" y="619.2" fill="#ECECEC" width="41" height="0.4"/>
		<rect x="137.4" y="632.6" fill="#ECECEC" width="71.3" height="0.4"/>
		<rect x="662.9" y="635.3" fill="#ECECEC" width="33.5" height="0.4"/>
		<rect x="605.7" y="635.3" fill="#ECECEC" width="49.7" height="0.4"/>
		<rect x="428.2" y="628.7" fill="#ECECEC" width="85.6" height="0.4"/>
		<path fill="#ECECEC" d="M365.8,539.4H65.9c-4.9,0-8.9-4-8.9-8.9V109c0-4.9,4-8.9,8.9-8.9h299.9c4.9,0,8.9,4,8.9,8.9v421.6
			C374.6,535.4,370.7,539.4,365.8,539.4z M65.9,100.5c-4.7,0-8.5,3.8-8.5,8.5v421.6c0,4.7,3.8,8.5,8.5,8.5h299.9
			c4.7,0,8.5-3.8,8.5-8.5V109c0-4.7-3.8-8.5-8.5-8.5H65.9z"/>
		<path fill="#ECECEC" d="M701.7,539.4H401.8c-4.9,0-8.9-4-8.9-8.9V109c0-4.9,4-8.9,8.9-8.9h299.9c4.9,0,8.9,4,8.9,8.9v421.6
			C710.6,535.4,706.6,539.4,701.7,539.4z M401.8,100.5c-4.7,0-8.5,3.8-8.5,8.5v421.6c0,4.7,3.8,8.5,8.5,8.5h299.9
			c4.7,0,8.5-3.8,8.5-8.5V109c0-4.7-3.8-8.5-8.5-8.5H401.8z"/>
	</g>
	<g>
		<rect x="118.1" y="147.5" fill="#E7E7E7" width="328.9" height="202.9"/>
		<rect x="122" y="147.5" fill="#F0F0F0" width="333.4" height="202.9"/>
		<rect x="118.1" y="350.4" fill="#E7E7E7" width="328.9" height="15.7"/>
		<rect x="136.1" y="350.4" fill="#F0F0F0" width="333.4" height="15.7"/>
		<rect x="133.8" y="159.3" fill="#FAFAFA" width="309.8" height="179.3"/>
		<polygon fill="#FFFFFF" points="156.6,338.6 226,159.3 258.8,159.3 189.4,338.6 		"/>
		<polygon fill="#FFFFFF" points="196.4,338.6 265.8,159.3 278.6,159.3 209.2,338.6 		"/>
		<polygon fill="#FFFFFF" points="317.9,338.6 387.3,159.3 400.1,159.3 330.7,338.6 		"/>
		<rect x="442.1" y="159.3" fill="#E7E7E7" width="1.5" height="179.3"/>
	</g>
	<g>
		<rect x="415.5" y="454.2" fill="#E7E7E7" width="58.2" height="154.5"/>
		<polygon fill="#F0F0F0" points="462.6,608.7 473.7,608.7 473.7,573.3 451.1,573.3 		"/>
		<rect x="83.6" y="454.2" fill="#ECECEC" width="58.2" height="154.5"/>
		<rect x="132.1" y="454.2" fill="#ECECEC" width="341.6" height="148.9"/>
		<polygon fill="#F0F0F0" points="143.1,608.7 132.1,608.7 132.1,573.3 154.7,573.3 		"/>
		<g>
			<path fill="#FAFAFA" d="M244.7,474.9v106.1c0,2.1-1.7,3.7-3.7,3.7h-93.8c-2.1,0-3.7-1.7-3.7-3.7V474.9c0-2.1,1.7-3.7,3.7-3.7H241
				C243,471.1,244.7,472.8,244.7,474.9z"/>
			<path fill="#F0F0F0" d="M204.1,482.7h-20c-8.7,0-17-5.2-23-14.3l0,0h66l0,0C221.1,477.6,212.8,482.7,204.1,482.7z"/>
		</g>
		<g>
			<path fill="#FAFAFA" d="M353.5,474.9v106.1c0,2.1-1.7,3.7-3.7,3.7H256c-2.1,0-3.7-1.7-3.7-3.7V474.9c0-2.1,1.7-3.7,3.7-3.7h93.8
				C351.8,471.1,353.5,472.8,353.5,474.9z"/>
			<path fill="#F0F0F0" d="M313.9,482.7h-20c-8.7,0-17-5.2-23-14.3l0,0h66l0,0C331,477.6,322.6,482.7,313.9,482.7z"/>
		</g>
		<g>
			<path fill="#FAFAFA" d="M462.3,474.9v106.1c0,2.1-1.7,3.7-3.7,3.7h-93.8c-2.1,0-3.7-1.7-3.7-3.7V474.9c0-2.1,1.7-3.7,3.7-3.7
				h93.8C460.7,471.1,462.3,472.8,462.3,474.9z"/>
			<path fill="#F0F0F0" d="M422.7,482.7h-20c-8.7,0-17-5.2-23-14.3l0,0h66l0,0C439.8,477.6,431.4,482.7,422.7,482.7z"/>
		</g>
	</g>
	<g>
		<path fill="#ECECEC" d="M714.4,439c-0.1-0.7-0.8-1.2-1.5-1.2h-40.5c-0.7,0-1.4,0.5-1.5,1.2l-21,169.6h3.2l20.6-167.8h38
			l20.6,167.8h3.2L714.4,439z"/>
		<path fill="#ECECEC" d="M653.5,439c-0.1-0.7-0.8-1.2-1.5-1.2h-40.5c-0.7,0-1.4,0.5-1.5,1.2l-21,169.6h3.2l20.6-167.8h37.9
			l20.6,167.8h3.2L653.5,439z"/>
		<path fill="#ECECEC" d="M682.5,439.4h-69.7c-13.3,0-20.7-9.1-24.5-24l-1.9-8.5c-1.5-7,1.1-14.4,7-18.5c2.9-2,6.3-3.1,10.1-3.1
			h43.7c9.1,0,11.4,2.2,17.7,15.8S682.5,439.4,682.5,439.4z"/>
		<path fill="#ECECEC" d="M712.7,426h-68.3v13.4h74.3c1.9,0,3.5-1.6,3.5-3.5v-0.3C722.3,430.3,718,426,712.7,426z"/>
	</g>
	<g>
		<path fill="#ECECEC" d="M623.5,439c-0.1-0.7-0.8-1.2-1.5-1.2h-40.5c-0.7,0-1.4,0.5-1.5,1.2l-21,169.6h3.2l20.6-167.8h38
			l20.6,167.8h3.2L623.5,439z"/>
		<path fill="#ECECEC" d="M562.6,439c-0.1-0.7-0.8-1.2-1.5-1.2h-40.5c-0.7,0-1.4,0.5-1.5,1.2l-21,169.6h3.2l20.6-167.8h37.9
			l20.6,167.8h3.2L562.6,439z"/>
		<path fill="#ECECEC" d="M591.7,439.4h-69.7c-13.3,0-20.7-9.1-24.5-24l-1.9-8.5c-1.5-7,1.1-14.4,7-18.5c2.9-2,6.3-3.1,10.1-3.1
			h43.7c9.1,0,11.4,2.2,17.7,15.8S591.7,439.4,591.7,439.4z"/>
		<path fill="#ECECEC" d="M621.9,426h-68.3v13.4h74.3c1.9,0,3.5-1.6,3.5-3.5v-0.3C631.4,430.3,627.2,426,621.9,426z"/>
	</g>
	<g>
		<rect x="543.6" y="139.2" fill="#F0F0F0" width="120.6" height="140.7"/>
		<rect x="545.5" y="139.2" fill="#ECECEC" width="129" height="140.7"/>
		<rect x="556.5" y="150.3" fill="#FFFFFF" width="106.8" height="118.5"/>
		<g>
			<rect x="601.3" y="200.9" fill="#E7E7E7" width="17.2" height="53.4"/>
			<g>
				<rect x="630.6" y="229.2" fill="#E7E7E7" width="17.2" height="25"/>
				<rect x="630.6" y="214" fill="#F0F0F0" width="17.2" height="15.2"/>
			</g>
			<rect x="601.3" y="168.3" fill="#F0F0F0" width="17.2" height="32.5"/>
			<rect x="572.1" y="210.6" fill="#E7E7E7" width="17.2" height="43.6"/>
			<rect x="572.1" y="190.6" fill="#F0F0F0" width="17.2" height="20"/>
		</g>
	</g>
	<ellipse id="_x3C_Path_x3E__272_" fill="#F5F5F5" cx="385.9" cy="661.2" rx="301.1" ry="17.6"/>
	<polygon fill="#FF8B7B" points="380.3,646.8 394.1,646.9 401.4,615.1 387.6,615 	"/>
	<path fill="#1A2E35" d="M394.4,645.3l-15-0.1c-0.6,0-1.1,0.4-1.2,0.9l-3.6,12.2c-0.4,1.3,0.5,2.5,1.8,2.5c5.4,0,13.3-0.3,20.1-0.2
		c8,0.1,9.6,0.6,19,0.6c5.7,0,7.6-5.6,5.3-6.2c-10.6-2.4-14.2-2.8-23-8.6C396.7,645.8,395.6,645.4,394.4,645.3z"/>
	<g>
		<polygon opacity="0.2" points="401.4,615.1 397.6,631.5 383.8,631.4 387.6,615 		"/>
	</g>
	<path fill="#007CFF" d="M400.1,647.8c-1.5,0-3.2-0.3-4.4-0.5c-0.1,0-0.2-0.1-0.3-0.3c0-0.1,0.1-0.3,0.2-0.3c0.7-0.3,6.4-3.1,8-2.1
		c0.3,0.2,0.5,0.5,0.5,0.9c0,0.7-0.2,1.2-0.7,1.6C402.6,647.6,401.4,647.8,400.1,647.8z M396.8,646.8c3,0.5,5.2,0.4,6.2-0.3
		c0.3-0.3,0.5-0.6,0.5-1.1c0-0.2-0.1-0.3-0.2-0.3C402.4,644.6,399.2,645.8,396.8,646.8z"/>
	<path fill="#007CFF" d="M395.7,647.3c-0.1,0-0.1,0-0.2-0.1c-0.1-0.1-0.1-0.2-0.1-0.3c0-0.3,1.1-6.2,4.4-5.8
		c0.9,0.1,1.1,0.5,1.2,0.9c0.2,1.5-3.3,4.5-5.1,5.3C395.8,647.3,395.8,647.3,395.7,647.3z M399.5,641.7c-2,0-3,3.2-3.3,4.6
		c1.8-1,4.2-3.4,4.1-4.3c0-0.1,0-0.3-0.6-0.3C399.6,641.7,399.6,641.7,399.5,641.7z"/>
	<path fill="#FF8B7B" d="M463.6,270.4c0.2,8.4,0.5,17.1,0.9,25.6c0.2,4.3,0.4,8.5,0.7,12.7c0.3,4.2,0.6,8.4,1.1,12.6
		c0.2,2.1,0.5,4.1,0.7,6.2l0.2,1.5c0,0.2,0,0.1,0,0.1l0,0c0,0,0,0,0,0c-0.1,0-0.1,0.2,0.1,0.4c0.2,0.6,1.1,1.5,2.3,2.4
		c1.2,0.9,2.7,1.8,4.3,2.7c6.6,3.4,14.9,5.9,22.8,8.2l-0.8,10.5c-4.8,0.3-9.3,0.2-14-0.3c-2.3-0.2-4.7-0.6-7-1
		c-2.4-0.4-4.8-1-7.2-1.8c-2.4-0.8-4.9-1.7-7.4-3.1c-2.5-1.4-5.2-3.2-7.6-6.1c-1.2-1.4-2.3-3.2-3.1-5.2c-0.2-0.5-0.4-1-0.6-1.6
		l-0.2-0.8l-0.2-0.7L448,331c-0.5-2.3-1-4.5-1.4-6.8c-1.6-9-2.6-17.9-3.4-26.9c-0.3-4.5-0.6-8.9-0.8-13.4c-0.1-4.5-0.3-8.9-0.2-13.5
		L463.6,270.4z"/>
	<path fill="#CE0000" d="M437.4,271.5c-2,15.6,1.6,38.7,1.6,38.7s10.9,1.5,19.3-0.7c8.5-2.2,10.2-3.9,10.2-3.9s3.5-15.8,0.2-32.5
		c-3.4-17.6-17.6-24.3-27.4-13.6C439.3,261.9,438,266.3,437.4,271.5z"/>
	<path opacity="0.2" d="M439,279c-0.8,2.5-1.5,5.2-2.1,8c0.4,12,2.1,23.1,2.1,23.1s9.8,1.4,18-0.3c0.2-3,0.4-6.1,0.4-9.4
		C457.4,285.4,448.6,276.5,439,279z"/>
	<path fill="#FF8B7B" d="M491.8,342.1l10.8-0.7l-0.5,13.6c0,0-6.7,1.3-13.4-4.2L491.8,342.1z"/>
	<path fill="#FF8B7B" d="M513.6,347.7l-2,5.6c-0.6,1.6-2.1,2.5-3.7,2.3l-5.7-0.7l0.5-13.6l8.3,1.6
		C513,343.5,514.3,345.7,513.6,347.7z"/>
	<g>
		<path fill="#1A2E35" d="M499.5,356.3l-3.5-1.9c-0.9-0.5-1.2-1.6-0.7-2.5l7.8-14c0.5-0.9,1.6-1.2,2.5-0.7l3.5,1.9
			c0.9,0.5,1.2,1.6,0.7,2.5l-7.8,14C501.5,356.5,500.4,356.8,499.5,356.3z"/>
		<path fill="#1A2E35" d="M498.4,361.7l-6.4-3.6c-0.5-0.3-0.7-0.9-0.4-1.3l3.1-5.6c0.3-0.5,0.9-0.7,1.3-0.4l6.4,3.6
			c0.5,0.3,0.7,0.9,0.4,1.3l-3.1,5.6C499.5,361.8,498.9,362,498.4,361.7z"/>
		<path fill="#1A2E35" d="M517.6,342.5c-3.8,0-7.6-0.9-11-2.9c-11.2-6.3-15.1-20.8-8.7-32.4c6.5-11.6,20.9-16,32.1-9.7
			c11.2,6.3,15.1,20.8,8.7,32.4l0,0C534.2,337.9,526,342.5,517.6,342.5z M519,297.9c-7.2,0-14.3,3.9-18.2,10.9
			c-5.6,10-2.3,22.5,7.4,27.9c9.6,5.4,22,1.6,27.6-8.4l0,0c5.6-10,2.3-22.5-7.4-27.9C525.4,298.7,522.2,297.9,519,297.9z"/>
	</g>
	<path fill="#0F0E20" d="M434.8,372.4c0,0,7,77.7,5,120.1c-2.1,44.1-33.4,131-33.4,131l-24.9-0.5c0,0,17-95.7,16.6-139.6
		c-0.5-47.8-4.9-119.4-4.9-119.4L434.8,372.4z"/>
	<path opacity="0.2" d="M402.3,384.3c-2.8-3.4-5.4-0.2-7.5,6.1c0.9,16.7,2,39.4,2.7,61.3C409.5,433.2,411.4,395.1,402.3,384.3z"/>
	<g>
		<polygon fill="#007CFF" points="378.5,624.1 407.7,624.7 410.8,615 380.3,614.9 		"/>
		<polygon fill="#0F0E20" points="378.5,624.1 407.7,624.7 410.8,615 380.3,614.9 		"/>
	</g>
	<polygon fill="#FF8B7B" points="277.3,592.7 287.7,601.7 311.2,579.9 300.8,570.9 	"/>
	<path fill="#1A2E35" d="M288.7,602.2l-7.9-12.8c-0.3-0.5-0.9-0.7-1.4-0.6l-12.3,3.4c-1.3,0.4-1.8,1.7-1.1,2.8
		c2.9,4.6,7.3,11.1,10.8,16.9c4.2,6.8,4.1,6.7,9,14.7c3,4.8,8.8,3.5,8.1,1.2c-3.5-10.3-4.7-11.7-4.4-22.3
		C289.5,604.3,289.3,603.2,288.7,602.2z"/>
	<g>
		<polygon opacity="0.2" points="311.2,579.9 299.1,591.1 288.7,582.1 300.8,570.9 		"/>
	</g>
	<path fill="#007CFF" d="M289.6,608.3c-0.8-1.3-1.5-2.9-1.9-4c0-0.1,0-0.3,0.1-0.4c0.1-0.1,0.3-0.1,0.4,0c0.6,0.4,6,3.8,6,5.7
		c0,0.4-0.2,0.7-0.5,0.9c-0.6,0.3-1.1,0.4-1.7,0.2C291.1,610.3,290.3,609.4,289.6,608.3z M288.7,605c1.1,2.8,2.4,4.7,3.5,5
		c0.4,0.1,0.8,0.1,1.2-0.2c0.2-0.1,0.2-0.2,0.2-0.3C293.6,608.6,290.8,606.4,288.7,605z"/>
	<path fill="#007CFF" d="M287.7,604.3c0-0.1-0.1-0.1,0-0.2c0-0.1,0.1-0.2,0.2-0.3c0.2-0.1,5.8-2.3,7.2,0.6c0.4,0.8,0.1,1.2-0.1,1.4
		C293.8,606.9,289.4,605.5,287.7,604.3C287.8,604.4,287.7,604.4,287.7,604.3z M294.4,604.6c-1-1.7-4.3-0.8-5.7-0.3
		c1.8,1,5.1,1.8,5.8,1.2c0.1,0,0.2-0.2,0-0.7C294.5,604.7,294.5,604.6,294.4,604.6z"/>
	<path fill="#0F0E20" d="M409.6,367.3c0,0-13.1,72.8-22.5,114.2c-9.7,43.1-77.4,108.1-77.4,108.1l-18.6-16.5
		c0,0,49.4-64.5,56.6-107.8c7.8-47.1,14.9-107.4,14.9-107.4L409.6,367.3z"/>
	<g>
		<polygon fill="#0F0E20" points="287.3,573.2 308.6,592.2 315.8,586.1 293.4,564.6 		"/>
		<polygon opacity="0.4" fill="#0F0E20" points="287.3,573.2 308.6,592.2 315.8,586.1 293.4,564.6 		"/>
	</g>
	<path fill="#CE0000" d="M457.5,255.6c0,0,7.7,44-22.7,116.8c-21.8-4.4-61.6-12.4-72.2-14.6c1.7-11.2,19.6-63.8,19.4-118.2
		c0,0,12.9,0,24.8,1.8c9.3,1.4,22.7,3.8,30.7,6.2C448,250.8,457.5,255.6,457.5,255.6z"/>
	<g>
		<path opacity="0.2" fill="#1A2E35" d="M444.3,299.6c-1,14.2-10.5,25.3-21.1,24.6c-3.4-0.2-6.7-1.7-9.4-4.1l3-5.9
			c2,1.8,4.4,2.9,6.9,3c7.7,0.5,14.7-7.6,15.4-18L444.3,299.6z"/>
		<path opacity="0.5" fill="#FFFFFF" d="M444.3,299.6l-5.2-0.4c0.2-2.8-0.1-5.5-0.8-8.1c-0.7-2.6-1.8-4.9-3.3-6.8l3.7-5.1
			c2,2.6,3.5,5.7,4.5,9.3C444.2,292,444.5,295.8,444.3,299.6z"/>
		<path opacity="0.4" fill="#1A2E35" d="M438.7,279.3l-3.7,5.1c-1.2-1.5-2.5-2.7-4-3.6c-1.5-0.9-3.1-1.4-4.8-1.5l0.5-7
			c2.3,0.2,4.5,0.8,6.5,2C435.2,275.5,437.1,277.2,438.7,279.3z"/>
		<path opacity="0.2" fill="#FFFFFF" d="M426.7,272.3l-0.5,7c-7.8-0.5-14.7,7.6-15.4,18c-0.5,6.8,1.8,13.2,6,16.9l-3,5.9
			c-5.7-5-8.8-13.9-8.1-23.1C406.6,282.7,416.1,271.6,426.7,272.3z"/>
	</g>
	<path opacity="0.2" d="M379.8,275.3c-0.7,5.5-1.4,10.8-2.3,16c6-2.8,14.3-17.6,13.4-25.7L379.8,275.3z"/>
	<path fill="#FF8B7B" d="M416.8,207.5c-0.1,10.3-1.8,28.7-10,33.9c0,0,2.8,11.4,24,19.2c10.4-4.6,6.7-13,6.7-13
		c-10.5-4.8-8.5-13-5.1-20.2L416.8,207.5z"/>
	<path opacity="0.2" d="M423.2,215.6l9.2,11.8c-0.8,1.7-1.6,3.5-2,5.3c-4.1-1.5-8.9-7.2-8.5-11.7
		C422.1,218.7,422.6,216.6,423.2,215.6z"/>
	<path fill="#1A2E35" d="M447.2,204.5c1.9-4.7,2.2-10-1.5-13.5c0.2-3,2.5-6.6,5.7-9.4C455.9,179,465.1,196.7,447.2,204.5z"/>
	<path fill="#1A2E35" d="M452.6,189.5c-0.8,0-1.5-0.7-1.6-1.5c0-0.9,0.6-1.6,1.5-1.6l0,0c0.3,0,7.4-0.4,9.7-8.7
		c0.2-0.8,1.1-1.3,1.9-1.1c0.8,0.2,1.3,1.1,1.1,1.9C462.9,186.9,456,189.4,452.6,189.5C452.6,189.5,452.6,189.5,452.6,189.5z"/>
	<path fill="#FF8B7B" d="M418.6,192.4c-1.9,13.5-3.7,21.4,1.7,29.6c8.1,12.4,25.8,9.6,31.7-3.1c5.3-11.4,7.5-31.6-4.5-39.6
		C435.6,171.4,420.5,178.9,418.6,192.4z"/>
	<path d="M418.2,204.4c2,0.1,3.5,0.3,4.6,0.6c1.6,0.4,3.2-1,3.1-2.7c-0.3-3.3,0.6-6.7,3.7-8.1c0.5-1.9-0.2-4.7-1.7-7
		c-0.7-1.2,0.5-2.7,1.8-2.1c6.7,2.6,16.9,6.7,22,4.1c6.6-3.4,14.2-15.8,4.2-16.6c-4.8-0.4-4.2-3.1-7.9-5.6
		c-3.6-2.5-12.4-2.2-19.2,1.2c-6.6,3.2-17-2.8-21,2.1c-2.9,3.6-1.1,8.7-1.1,8.7s-5.8,0.8-6.7,11.7c-0.7,8.1,12.3,23.5,16.4,25.2
		C418.8,207.2,418.2,204.4,418.2,204.4z"/>
	<path fill="#1A2E35" d="M408.7,182.6c-0.6,0-1.2-0.4-1.5-1c-0.2-0.7-1.7-4-5.9-2.5c-0.8,0.3-1.7-0.2-2-1c-0.3-0.8,0.2-1.7,1-2
		c2.3-0.8,4.3-0.7,6.1,0.1c2.7,1.3,3.7,4.2,3.8,4.3c0.3,0.8-0.2,1.7-1,2C409,182.6,408.8,182.6,408.7,182.6z"/>
	
		<ellipse transform="matrix(-0.9803 -0.1976 0.1976 -0.9803 830.5903 483.905)" fill="#1A2E35" cx="439.4" cy="200.5" rx="1.3" ry="2"/>
	
		<ellipse transform="matrix(-0.9803 -0.1976 0.1976 -0.9803 854.4681 491.2481)" fill="#1A2E35" cx="451.7" cy="203" rx="1.3" ry="2"/>
	<path fill="#FF5551" d="M446.4,202.5c0,0,1.2,6.8,3.3,10.4c-2.3,1.4-5.4-0.1-5.4-0.1L446.4,202.5z"/>
	<path fill="#1A2E35" d="M440.6,215.1C440.6,215.1,440.6,215.1,440.6,215.1c-5.1-1-6.8-5-6.8-5.2c-0.1-0.2,0-0.4,0.2-0.4
		c0.2-0.1,0.4,0,0.4,0.2c0,0,1.6,3.8,6.4,4.8c0.2,0,0.3,0.2,0.3,0.4C440.9,215.1,440.8,215.2,440.6,215.1z"/>
	<path fill="#1A2E35" d="M441,194c0.1,0.1,0.2,0.2,0.2,0.4c0.1,0.3-0.1,0.7-0.5,0.8c-3.5,1-5.8-1-5.9-1.1c-0.3-0.2-0.3-0.7-0.1-0.9
		c0.2-0.3,0.7-0.3,0.9-0.1l0,0c0.1,0.1,1.9,1.6,4.6,0.8C440.6,193.9,440.8,193.9,441,194z"/>
	<path fill="#1A2E35" d="M457.4,197c-0.2,0-0.5-0.1-0.6-0.4c-1.2-2.6-3.6-3-3.6-3c-0.4,0-0.6-0.4-0.6-0.7c0-0.4,0.4-0.6,0.7-0.6
		c0.1,0,3.1,0.5,4.7,3.7c0.2,0.3,0,0.7-0.3,0.9C457.6,197,457.5,197,457.4,197z"/>
	<path fill="#FF8B7B" d="M392.9,263.6c-3.2,3.4-6.7,7-10,10.6c-3.3,3.6-6.6,7.2-9.8,10.9c-6.4,7.3-12.6,14.8-18,22.6l-2,2.8
		c-0.4,0.5-0.7,1.1-1,1.8c-0.6,1.3-1.1,2.9-1.3,4.6c-0.5,3.5-0.2,7.8,0.7,12.1c1.7,8.7,5.5,17.9,9.5,26.4l-8.6,6
		c-1.9-2.2-3.4-4.2-5-6.4c-1.5-2.2-3-4.4-4.4-6.7c-2.8-4.6-5.2-9.5-7.1-14.8c-1.9-5.3-3.3-11.2-3.2-17.7c0.1-3.3,0.5-6.7,1.7-10.1
		c0.6-1.7,1.3-3.4,2.2-5l2.1-3.6c1.3-2.3,2.8-4.5,4.2-6.8c1.5-2.2,3-4.4,4.5-6.5c3-4.3,6.3-8.4,9.5-12.4c3.3-4,6.7-7.9,10.2-11.8
		c3.5-3.8,7-7.5,10.9-11.3L392.9,263.6z"/>
	<path fill="#CE0000" d="M382,239.7c-13.2,0.5-32.7,36.8-32.7,36.8c2.6,6.3,13.8,16,19.8,17.6c0,0,15.6-10,24.2-24.7
		C402.2,253.9,396.1,239.1,382,239.7z"/>
	<path fill="#FF8B7B" d="M357.6,352.5l14.5,2.7l-11.6,13.1c0,0-9.9-4.4-9.9-9.8L357.6,352.5z"/>
	<path fill="#FF8B7B" d="M376.3,369l-3,3c-2.1,2.2-5.5,2.3-7.8,0.4l-4.9-4.1l11.6-13.1l4.7,6.3C378.5,363.8,378.3,367,376.3,369z"/>
	<path fill="#FF8B7B" d="M410.8,201.8c-0.1,3.7,1.5,7.1,3.6,9.2c3.2,3.2,7,0.9,8.1-3.3c0.9-3.8,0.3-10-3.8-11.7
		C414.7,194.4,410.9,197.6,410.8,201.8z"/>
	<path fill="#FF8D8D" d="M140.6,583h-23.7c-3.7,0-6.6-3-6.6-6.6v-41.8c0-3.7,3-6.6,6.6-6.6h23.7c3.7,0,6.6,3,6.6,6.6v41.8
		C147.2,580.1,144.2,583,140.6,583z"/>
	<path fill="#CE0000" d="M183.5,583h-23.7c-3.7,0-6.6-3-6.6-6.6v-71c0-3.7,3-6.6,6.6-6.6h23.7c3.7,0,6.6,3,6.6,6.6v71
		C190.1,580.1,187.1,583,183.5,583z"/>
	<path fill="#FF8D8D" d="M226.3,583h-23.7c-3.7,0-6.6-3-6.6-6.6v-58.3c0-3.7,3-6.6,6.6-6.6h23.7c3.7,0,6.6,3,6.6,6.6v58.3
		C232.9,580.1,230,583,226.3,583z"/>
	<path fill="#FF8D8D" d="M269.2,583h-23.7c-3.7,0-6.6-3-6.6-6.6V500c0-3.7,3-6.6,6.6-6.6h23.7c3.7,0,6.6,3,6.6,6.6v76.5
		C275.8,580.1,272.9,583,269.2,583z"/>
	<path fill="#CE0000" d="M312.1,583h-23.7c-3.7,0-6.6-3-6.6-6.6v-95.6c0-3.7,3-6.6,6.6-6.6h23.7c3.7,0,6.6,3,6.6,6.6v95.6
		C318.7,580.1,315.7,583,312.1,583z"/>
	<path fill="#CE0000" d="M354.9,583h-23.7c-3.7,0-6.6-3-6.6-6.6V460.6c0-3.7,3-6.6,6.6-6.6h23.7c3.7,0,6.6,3,6.6,6.6v115.8
		C361.6,580.1,358.6,583,354.9,583z"/>
	<path fill="#FF8D8D" d="M397.8,583h-23.7c-3.7,0-6.6-3-6.6-6.6v-85.3c0-3.7,3-6.6,6.6-6.6h23.7c3.7,0,6.6,3,6.6,6.6v85.3
		C404.4,580.1,401.5,583,397.8,583z"/>
	<path fill="#FF8D8D" d="M440.7,583h-23.7c-3.7,0-6.6-3-6.6-6.6V451.8c0-3.7,3-6.6,6.6-6.6h23.7c3.7,0,6.6,3,6.6,6.6v124.6
		C447.3,580.1,444.3,583,440.7,583z"/>
	<path fill="#CE0000" d="M483.6,583h-23.7c-3.7,0-6.6-3-6.6-6.6V439.9c0-3.7,3-6.6,6.6-6.6h23.7c3.7,0,6.6,3,6.6,6.6v136.5
		C490.2,580.1,487.2,583,483.6,583z"/>
	<path fill="#FF8D8D" d="M526.4,583h-23.7c-3.7,0-6.6-3-6.6-6.6V447.1c0-3.7,3-6.6,6.6-6.6h23.7c3.7,0,6.6,3,6.6,6.6v129.3
		C533,580.1,530.1,583,526.4,583z"/>
	<path fill="#CE0000" d="M569.3,583h-23.7c-3.7,0-6.6-3-6.6-6.6V404.8c0-3.7,3-6.6,6.6-6.6h23.7c3.7,0,6.6,3,6.6,6.6v171.7
		C575.9,580.1,573,583,569.3,583z"/>
	<path fill="#FF8D8D" d="M612.2,583h-23.7c-3.7,0-6.6-3-6.6-6.6v-154c0-3.7,3-6.6,6.6-6.6h23.7c3.7,0,6.6,3,6.6,6.6v154
		C618.8,580.1,615.8,583,612.2,583z"/>
	<path fill="#CE0000" d="M655,583h-23.7c-3.7,0-6.6-3-6.6-6.6V379.5c0-3.7,3-6.6,6.6-6.6H655c3.7,0,6.6,3,6.6,6.6v196.9
		C661.7,580.1,658.7,583,655,583z"/>
	<g>
		<path fill="#1A2E35" d="M128.7,552.5c-0.2,0-0.5-0.1-0.6-0.3c-0.3-0.3-0.2-0.8,0.2-1.1l1.9-1.4c0.3-0.3,0.8-0.2,1.1,0.2
			c0.3,0.3,0.2,0.8-0.2,1.1l-1.9,1.4C129,552.5,128.9,552.5,128.7,552.5z"/>
		<path fill="#1A2E35" d="M136.9,546.6c-0.2,0-0.5-0.1-0.6-0.3c-0.3-0.3-0.2-0.8,0.2-1.1l3.8-2.8c0.3-0.3,0.8-0.2,1.1,0.2
			c0.3,0.3,0.2,0.8-0.2,1.1l-3.8,2.8C137.2,546.5,137.1,546.6,136.9,546.6z M147,539.2c-0.2,0-0.5-0.1-0.6-0.3
			c-0.3-0.3-0.2-0.8,0.2-1.1l3.8-2.8c0.3-0.3,0.8-0.2,1.1,0.2c0.3,0.3,0.2,0.8-0.2,1.1l-3.8,2.8C147.3,539.2,147.2,539.2,147,539.2z
			 M157.1,531.9c-0.2,0-0.5-0.1-0.6-0.3c-0.3-0.3-0.2-0.8,0.2-1.1l3.8-2.8c0.3-0.3,0.8-0.2,1.1,0.2c0.3,0.3,0.2,0.8-0.2,1.1
			l-3.8,2.8C157.4,531.8,157.2,531.9,157.1,531.9z M167.2,524.5c-0.2,0-0.5-0.1-0.6-0.3c-0.3-0.3-0.2-0.8,0.2-1.1l3.8-2.8
			c0.3-0.3,0.8-0.2,1.1,0.2c0.3,0.3,0.2,0.8-0.2,1.1l-3.8,2.8C167.5,524.5,167.3,524.5,167.2,524.5z M177.3,517.2
			c-0.2,0-0.5-0.1-0.6-0.3c-0.3-0.3-0.2-0.8,0.2-1.1l3.8-2.8c0.3-0.3,0.8-0.2,1.1,0.2c0.3,0.3,0.2,0.8-0.2,1.1l-3.8,2.8
			C177.6,517.1,177.4,517.2,177.3,517.2z M187.3,509.8c-0.2,0-0.5-0.1-0.6-0.3c-0.3-0.3-0.2-0.8,0.2-1.1l3.8-2.8
			c0.3-0.3,0.8-0.2,1.1,0.2c0.3,0.3,0.2,0.8-0.2,1.1l-3.8,2.8C187.7,509.8,187.5,509.8,187.3,509.8z M197.4,502.5
			c-0.2,0-0.5-0.1-0.6-0.3c-0.3-0.3-0.2-0.8,0.2-1.1l3.8-2.8c0.3-0.3,0.8-0.2,1.1,0.2c0.3,0.3,0.2,0.8-0.2,1.1l-3.8,2.8
			C197.8,502.4,197.6,502.5,197.4,502.5z M207.5,495.2c-0.2,0-0.5-0.1-0.6-0.3c-0.3-0.3-0.2-0.8,0.2-1.1l3.8-2.8
			c0.3-0.3,0.8-0.2,1.1,0.2c0.3,0.3,0.2,0.8-0.2,1.1L208,495C207.8,495.1,207.7,495.2,207.5,495.2z M217.6,487.8
			c-0.2,0-0.5-0.1-0.6-0.3c-0.3-0.3-0.2-0.8,0.2-1.1l3.8-2.8c0.3-0.3,0.8-0.2,1.1,0.2c0.3,0.3,0.2,0.8-0.2,1.1l-3.8,2.8
			C217.9,487.8,217.8,487.8,217.6,487.8z M227.7,480.5c-0.2,0-0.5-0.1-0.6-0.3c-0.3-0.3-0.2-0.8,0.2-1.1l3.8-2.8
			c0.3-0.3,0.8-0.2,1.1,0.2c0.3,0.3,0.2,0.8-0.2,1.1l-3.8,2.8C228,480.4,227.9,480.5,227.7,480.5z M237.8,473.1
			c-0.2,0-0.5-0.1-0.6-0.3c-0.3-0.3-0.2-0.8,0.2-1.1l3.8-2.8c0.3-0.3,0.8-0.2,1.1,0.2c0.3,0.3,0.2,0.8-0.2,1.1l-3.8,2.8
			C238.1,473.1,237.9,473.1,237.8,473.1z M247.9,465.8c-0.2,0-0.5-0.1-0.6-0.3c-0.3-0.3-0.2-0.8,0.2-1.1l3.8-2.8
			c0.3-0.3,0.8-0.2,1.1,0.2c0.3,0.3,0.2,0.8-0.2,1.1l-3.8,2.8C248.2,465.7,248,465.8,247.9,465.8z M258,458.4
			c-0.2,0-0.5-0.1-0.6-0.3c-0.3-0.3-0.2-0.8,0.2-1.1l3.8-2.8c0.3-0.3,0.8-0.2,1.1,0.2c0.3,0.3,0.2,0.8-0.2,1.1l-3.8,2.8
			C258.3,458.4,258.1,458.4,258,458.4z M268.1,451.1c-0.2,0-0.5-0.1-0.6-0.3c-0.3-0.3-0.2-0.8,0.2-1.1l3.8-2.8
			c0.3-0.3,0.8-0.2,1.1,0.2c0.3,0.3,0.2,0.8-0.2,1.1l-3.8,2.8C268.4,451,268.2,451.1,268.1,451.1z M278.1,443.7
			c-0.2,0-0.5-0.1-0.6-0.3c-0.3-0.3-0.2-0.8,0.2-1.1l3.8-2.8c0.3-0.3,0.8-0.2,1.1,0.2c0.3,0.3,0.2,0.8-0.2,1.1l-3.8,2.8
			C278.5,443.7,278.3,443.7,278.1,443.7z M288.2,436.4c-0.2,0-0.5-0.1-0.6-0.3c-0.3-0.3-0.2-0.8,0.2-1.1l3.8-2.8
			c0.3-0.3,0.8-0.2,1.1,0.2c0.3,0.3,0.2,0.8-0.2,1.1l-3.8,2.8C288.6,436.4,288.4,436.4,288.2,436.4z"/>
		<path fill="#1A2E35" d="M298.3,429.1c-0.2,0-0.5-0.1-0.6-0.3c-0.3-0.3-0.2-0.8,0.2-1.1l1.9-1.4c0.2-0.1,0.4-0.2,0.7-0.1l2.3,0.6
			c0.4,0.1,0.7,0.5,0.6,0.9c-0.1,0.4-0.5,0.7-0.9,0.6l-1.9-0.5l-1.6,1.2C298.6,429,298.5,429.1,298.3,429.1z"/>
		<path fill="#1A2E35" d="M471.6,471.9c0,0-0.1,0-0.1,0l-4.4-1.1c-0.4-0.1-0.7-0.5-0.6-0.9c0.1-0.4,0.5-0.7,0.9-0.6l4.3,1.1
			c0.3,0,0.5,0.1,0.7,0.4c0.2,0.4,0.1,0.8-0.2,1C472,471.9,471.8,471.9,471.6,471.9z M459.7,468.8c-0.1,0-0.1,0-0.2,0l-4.5-1.2
			c-0.4-0.1-0.7-0.5-0.6-0.9c0.1-0.4,0.5-0.7,0.9-0.6l4.5,1.2c0.4,0.1,0.7,0.5,0.6,0.9C460.4,468.6,460.1,468.8,459.7,468.8z
			 M478.6,468c-0.3,0-0.5-0.1-0.7-0.4c-0.2-0.4-0.1-0.8,0.3-1.1l4.1-2.3c0.4-0.2,0.8-0.1,1.1,0.3c0.2,0.4,0.1,0.8-0.3,1.1l-4.1,2.3
			C478.8,468,478.7,468,478.6,468z M447.6,465.7c-0.1,0-0.1,0-0.2,0l-4.5-1.2c-0.4-0.1-0.7-0.5-0.6-0.9c0.1-0.4,0.5-0.7,0.9-0.6
			l4.5,1.2c0.4,0.1,0.7,0.5,0.6,0.9C448.3,465.5,448,465.7,447.6,465.7z M435.5,462.6c-0.1,0-0.1,0-0.2,0l-4.5-1.2
			c-0.4-0.1-0.7-0.5-0.6-0.9c0.1-0.4,0.5-0.7,0.9-0.6l4.5,1.2c0.4,0.1,0.7,0.5,0.6,0.9C436.2,462.4,435.9,462.6,435.5,462.6z
			 M489.4,461.8c-0.3,0-0.5-0.1-0.7-0.4c-0.2-0.4-0.1-0.8,0.3-1.1l4.1-2.3c0.4-0.2,0.8-0.1,1.1,0.3c0.2,0.4,0.1,0.8-0.3,1.1
			l-4.1,2.3C489.7,461.7,489.5,461.8,489.4,461.8z M423.4,459.5c-0.1,0-0.1,0-0.2,0l-4.5-1.2c-0.4-0.1-0.7-0.5-0.6-0.9
			c0.1-0.4,0.5-0.7,0.9-0.6l4.5,1.2c0.4,0.1,0.7,0.5,0.6,0.9C424.1,459.3,423.8,459.5,423.4,459.5z M411.3,456.4c-0.1,0-0.1,0-0.2,0
			l-4.5-1.2c-0.4-0.1-0.7-0.5-0.6-0.9c0.1-0.4,0.5-0.7,0.9-0.6l4.5,1.2c0.4,0.1,0.7,0.5,0.6,0.9C412,456.1,411.7,456.4,411.3,456.4z
			 M500.3,455.6c-0.3,0-0.5-0.1-0.7-0.4c-0.2-0.4-0.1-0.8,0.3-1.1l4.1-2.3c0.4-0.2,0.8-0.1,1.1,0.3c0.2,0.4,0.1,0.8-0.3,1.1
			l-4.1,2.3C500.5,455.5,500.4,455.6,500.3,455.6z M399.2,453.2c-0.1,0-0.1,0-0.2,0l-4.5-1.2c-0.4-0.1-0.7-0.5-0.6-0.9
			c0.1-0.4,0.5-0.7,0.9-0.6l4.5,1.2c0.4,0.1,0.7,0.5,0.6,0.9C399.9,453,399.6,453.2,399.2,453.2z M387.1,450.1c-0.1,0-0.1,0-0.2,0
			l-4.5-1.2c-0.4-0.1-0.7-0.5-0.6-0.9c0.1-0.4,0.5-0.7,0.9-0.6l4.5,1.2c0.4,0.1,0.7,0.5,0.6,0.9
			C387.8,449.9,387.5,450.1,387.1,450.1z M511.1,449.4c-0.3,0-0.5-0.1-0.7-0.4c-0.2-0.4-0.1-0.8,0.3-1.1l4.1-2.3
			c0.4-0.2,0.8-0.1,1.1,0.3c0.2,0.4,0.1,0.8-0.3,1.1l-4.1,2.3C511.4,449.3,511.2,449.4,511.1,449.4z M375,447c-0.1,0-0.1,0-0.2,0
			l-4.5-1.2c-0.4-0.1-0.7-0.5-0.6-0.9c0.1-0.4,0.5-0.7,0.9-0.6l4.5,1.2c0.4,0.1,0.7,0.5,0.6,0.9C375.7,446.8,375.4,447,375,447z
			 M362.9,443.9c-0.1,0-0.1,0-0.2,0l-4.5-1.2c-0.4-0.1-0.7-0.5-0.6-0.9c0.1-0.4,0.5-0.7,0.9-0.6l4.5,1.2c0.4,0.1,0.7,0.5,0.6,0.9
			C363.6,443.6,363.3,443.9,362.9,443.9z M521.9,443.1c-0.3,0-0.5-0.1-0.7-0.4c-0.2-0.4-0.1-0.8,0.3-1.1l4.1-2.3
			c0.4-0.2,0.8-0.1,1.1,0.3c0.2,0.4,0.1,0.8-0.3,1.1l-4.1,2.3C522.2,443.1,522.1,443.1,521.9,443.1z M350.8,440.8
			c-0.1,0-0.1,0-0.2,0l-4.5-1.2c-0.4-0.1-0.7-0.5-0.6-0.9c0.1-0.4,0.5-0.7,0.9-0.6l4.5,1.2c0.4,0.1,0.7,0.5,0.6,0.9
			C351.5,440.5,351.2,440.8,350.8,440.8z M338.7,437.6c-0.1,0-0.1,0-0.2,0l-4.5-1.2c-0.4-0.1-0.7-0.5-0.6-0.9
			c0.1-0.4,0.5-0.7,0.9-0.6l4.5,1.2c0.4,0.1,0.7,0.5,0.6,0.9C339.4,437.4,339.1,437.6,338.7,437.6z M532.8,436.9
			c-0.3,0-0.5-0.1-0.7-0.4c-0.2-0.4-0.1-0.8,0.3-1.1l4.1-2.3c0.4-0.2,0.8-0.1,1.1,0.3c0.2,0.4,0.1,0.8-0.3,1.1l-4.1,2.3
			C533,436.9,532.9,436.9,532.8,436.9z M326.7,434.5c-0.1,0-0.1,0-0.2,0l-4.5-1.2c-0.4-0.1-0.7-0.5-0.6-0.9c0.1-0.4,0.5-0.7,0.9-0.6
			l4.5,1.2c0.4,0.1,0.7,0.5,0.6,0.9C327.3,434.3,327,434.5,326.7,434.5z M314.6,431.4c-0.1,0-0.1,0-0.2,0l-4.5-1.2
			c-0.4-0.1-0.7-0.5-0.6-0.9c0.1-0.4,0.5-0.7,0.9-0.6l4.5,1.2c0.4,0.1,0.7,0.5,0.6,0.9C315.2,431.2,314.9,431.4,314.6,431.4z
			 M543.6,430.7c-0.3,0-0.5-0.1-0.7-0.4c-0.2-0.4-0.1-0.8,0.3-1.1l4.1-2.3c0.4-0.2,0.8-0.1,1.1,0.3c0.2,0.4,0.1,0.8-0.3,1.1
			l-4.1,2.3C543.9,430.7,543.7,430.7,543.6,430.7z M554.4,424.5c-0.3,0-0.5-0.1-0.7-0.4c-0.2-0.4-0.1-0.8,0.3-1.1l4.1-2.3
			c0.4-0.2,0.8-0.1,1.1,0.3c0.2,0.4,0.1,0.8-0.3,1.1l-4.1,2.3C554.7,424.5,554.6,424.5,554.4,424.5z M565.3,418.3
			c-0.3,0-0.5-0.1-0.7-0.4c-0.2-0.4-0.1-0.8,0.3-1.1l4.1-2.3c0.4-0.2,0.8-0.1,1.1,0.3c0.2,0.4,0.1,0.8-0.3,1.1l-4.1,2.3
			C565.5,418.3,565.4,418.3,565.3,418.3z M576.1,412.1c-0.3,0-0.5-0.1-0.7-0.4c-0.2-0.4-0.1-0.8,0.3-1.1l4.1-2.3
			c0.4-0.2,0.8-0.1,1.1,0.3c0.2,0.4,0.1,0.8-0.3,1.1l-4.1,2.3C576.4,412,576.3,412.1,576.1,412.1z M587,405.9
			c-0.3,0-0.5-0.1-0.7-0.4c-0.2-0.4-0.1-0.8,0.3-1.1l4.1-2.3c0.4-0.2,0.8-0.1,1.1,0.3c0.2,0.4,0.1,0.8-0.3,1.1l-4.1,2.3
			C587.2,405.8,587.1,405.9,587,405.9z M597.8,399.7c-0.3,0-0.5-0.1-0.7-0.4c-0.2-0.4-0.1-0.8,0.3-1.1l4.1-2.3
			c0.4-0.2,0.8-0.1,1.1,0.3c0.2,0.4,0.1,0.8-0.3,1.1l-4.1,2.3C598.1,399.6,597.9,399.7,597.8,399.7z M608.6,393.4
			c-0.3,0-0.5-0.1-0.7-0.4c-0.2-0.4-0.1-0.8,0.3-1.1l4.1-2.3c0.4-0.2,0.8-0.1,1.1,0.3c0.2,0.4,0.1,0.8-0.3,1.1l-4.1,2.3
			C608.9,393.4,608.8,393.4,608.6,393.4z M619.5,387.2c-0.3,0-0.5-0.1-0.7-0.4c-0.2-0.4-0.1-0.8,0.3-1.1l4.1-2.3
			c0.4-0.2,0.8-0.1,1.1,0.3c0.2,0.4,0.1,0.8-0.3,1.1l-4.1,2.3C619.7,387.2,619.6,387.2,619.5,387.2z M630.3,381
			c-0.3,0-0.5-0.1-0.7-0.4c-0.2-0.4-0.1-0.8,0.3-1.1l4.1-2.3c0.4-0.2,0.8-0.1,1.1,0.3c0.2,0.4,0.1,0.8-0.3,1.1l-4.1,2.3
			C630.6,381,630.4,381,630.3,381z"/>
		<path fill="#1A2E35" d="M641.2,374.8c-0.3,0-0.5-0.1-0.7-0.4c-0.2-0.4-0.1-0.8,0.3-1.1l2-1.2c0.4-0.2,0.8-0.1,1.1,0.3
			c0.2,0.4,0.1,0.8-0.3,1.1l-2,1.2C641.4,374.8,641.3,374.8,641.2,374.8z"/>
	</g>
	<g>
		<circle fill="#FFFFFF" cx="128.7" cy="551.7" r="6.4"/>
		<path fill="#1A2E35" d="M128.7,558.9c-3.9,0-7.1-3.2-7.1-7.1s3.2-7.2,7.1-7.2c3.9,0,7.1,3.2,7.1,7.2S132.7,558.9,128.7,558.9z
			 M128.7,546.1c-3.1,0-5.6,2.5-5.6,5.6c0,3.1,2.5,5.6,5.6,5.6c3.1,0,5.6-2.5,5.6-5.6C134.3,548.7,131.8,546.1,128.7,546.1z"/>
	</g>
	<g>
		<circle fill="#FFFFFF" cx="300.2" cy="426.9" r="6.4"/>
		<path fill="#1A2E35" d="M300.2,434.1c-3.9,0-7.1-3.2-7.1-7.1s3.2-7.2,7.1-7.2s7.1,3.2,7.1,7.2S304.1,434.1,300.2,434.1z
			 M300.2,421.3c-3.1,0-5.6,2.5-5.6,5.6c0,3.1,2.5,5.6,5.6,5.6c3.1,0,5.6-2.5,5.6-5.6C305.8,423.8,303.3,421.3,300.2,421.3z"/>
	</g>
	<g>
		<circle fill="#FFFFFF" cx="471.7" cy="471.2" r="6.4"/>
		<path fill="#1A2E35" d="M471.7,478.3c-3.9,0-7.2-3.2-7.2-7.1c0-3.9,3.2-7.1,7.2-7.1s7.1,3.2,7.1,7.1
			C478.8,475.1,475.6,478.3,471.7,478.3z M471.7,465.6c-3.1,0-5.6,2.5-5.6,5.6c0,3.1,2.5,5.6,5.6,5.6c3.1,0,5.6-2.5,5.6-5.6
			C477.3,468.1,474.8,465.6,471.7,465.6z"/>
	</g>
	<g>
		<circle fill="#FFFFFF" cx="643.2" cy="372.9" r="6.4"/>
		<path fill="#1A2E35" d="M643.2,380c-3.9,0-7.1-3.2-7.1-7.1s3.2-7.1,7.1-7.1c3.9,0,7.1,3.2,7.1,7.1S647.1,380,643.2,380z
			 M643.2,367.3c-3.1,0-5.6,2.5-5.6,5.6s2.5,5.6,5.6,5.6c3.1,0,5.6-2.5,5.6-5.6S646.3,367.3,643.2,367.3z"/>
	</g>
</g>
<rect fill="none" width="800" height="800"/>
<g>
</g>
<g>
</g>
<g>
</g>
<g>
</g>
<g>
</g>
</svg>
