<?xml version="1.0" encoding="utf-8"?>
<!-- Generator: Adobe Illustrator 17.1.0, SVG Export Plug-In . SVG Version: 6.00 Build 0)  -->
<!DOCTYPE svg PUBLIC "-//W3C//DTD SVG 1.1//EN" "http://www.w3.org/Graphics/SVG/1.1/DTD/svg11.dtd">
<svg version="1.1" id="Layer_1" xmlns="http://www.w3.org/2000/svg" xmlns:xlink="http://www.w3.org/1999/xlink" x="0px" y="0px"
	 viewBox="0 0 95.7 57.9" enable-background="new 0 0 95.7 57.9" xml:space="preserve">
<g>
	<path fill="#66686C" d="M10.8,17.3l-5.9,21c-0.3,1.1,0.5,2.1,1.6,2.1h24.8c0.8,0,1.4-0.5,1.6-1.2l5.6-21.8h-4.3l-5.1,18.7l-19-0.1
		l5.3-18.6H10.8z"/>
	<path fill="#66686C" d="M41.6,17.5L40.4,22h22.9l-1.2,4.8h-23l-3.9,13.8h4.6l2.7-9.3l20.4,0c1.6,0,3.1-1.1,3.4-2.7l2-8.3
		c0.3-1.3-0.7-2.6-2-2.6L41.6,17.5z"/>
	<polygon fill="#66686C" points="72.5,17.3 77.2,17.3 70.8,40.5 66.1,40.5 	"/>
	<polygon fill="#27803B" points="85.1,17.5 78.7,40.6 90.8,28.9 	"/>
	<polygon fill="#E9661C" points="81,17.5 74.6,40.6 86.8,28.9 	"/>
</g>
<g>
</g>
<g>
</g>
<g>
</g>
<g>
</g>
<g>
</g>
</svg>
